<svg width="882" height="228" viewBox="0 0 882 228" fill="none" xmlns="http://www.w3.org/2000/svg">
<g filter="url(#filter0_d_9_133)">
<path d="M6 147.5C19.5 151.5 31.3333 148 33.5 144C44.1667 151.833 62.9 170.5 42.5 166.5C17 161.5 12 155 6 147.5Z" fill="#FFF3F3"/>
<path d="M6 147.5C19.5 151.5 31.3333 148 33.5 144C44.1667 151.833 62.9 170.5 42.5 166.5C17 161.5 12 155 6 147.5Z" stroke="#FFF3F3"/>
</g>
<g filter="url(#filter1_d_9_133)">
<rect x="29" width="849" height="180" rx="15" fill="#FFF3F3"/>
</g>
<path d="M33.8234 156.668C32.6259 155.361 30.2458 155.695 28.6955 155.132C28.5198 155.068 26.9556 154.451 26.821 154.72C26.6788 155.005 27.4382 154.876 27.7522 154.926C28.4453 155.036 29.1443 155.112 29.8324 155.253C30.3497 155.358 31.0097 155.435 31.5013 155.627C32.239 155.916 29.9194 155.534 29.1309 155.458C26.8089 155.234 24.4018 155.144 22.068 155.144C20.7441 155.144 24.4408 156.326 25.672 156.813C27.0034 157.339 28.3688 157.664 29.7356 158.07C30.9525 158.432 30.4735 158.291 29.5058 157.72C28.5873 157.178 27.4018 156.244 26.3251 156.039C25.2684 155.837 27.5895 157.735 27.7159 157.829C28.4549 158.376 29.2479 158.966 30.1226 159.28C31.3272 159.712 30.3104 159.444 29.5905 159.256C29.2065 159.155 25.1216 157.905 27.2201 158.796C28.7461 159.444 30.2908 160.062 31.8642 160.586" stroke="#FFF3F3" stroke-width="3" stroke-linecap="round"/>
<path d="M26.5984 160.782C27.3641 161.038 28.0097 161.476 28.7293 161.832C29.9094 162.414 30.9556 162.939 32.2834 162.939" stroke="#FFF3F3" stroke-width="3" stroke-linecap="round"/>
<path d="M23.7885 153.398C27.5074 153.328 31.1978 153.046 34.8972 152.679" stroke="#FFF3F3" stroke-width="3" stroke-linecap="round"/>
<path d="M27.1865 162.155C27.4785 162.42 28.0439 162.548 28.4317 162.645C28.6231 162.692 28.8117 162.739 29.0016 162.793C29.0948 162.82 29.2111 162.83 29.3066 162.844C29.5192 162.876 29.6816 162.892 29.9056 162.877C30.0336 162.868 30.1638 162.859 30.2867 162.823C31.2021 162.548 30.0268 162.839 30.7151 162.481" stroke="#FFF3F3" stroke-linecap="round"/>
<path d="M26.1409 152.81C27.6336 152.01 29.1202 151.199 30.6135 150.4C30.8355 150.281 31.4768 149.882 31.2524 149.997C30.6233 150.317 30.0227 150.728 29.4373 151.118C28.7153 151.6 26.6584 153.193 27.3172 152.629C27.7889 152.224 28.4044 151.909 28.9363 151.609C29.5755 151.247 29.8492 151.109 30.4646 150.799C30.5917 150.735 30.9432 150.635 30.8204 150.563C30.4696 150.357 29.5744 150.519 29.2485 150.567C28.402 150.69 27.5707 150.926 26.769 151.22C26.4916 151.322 25.6785 151.608 25.974 151.612C26.3942 151.619 26.7893 151.407 27.1937 151.293C29.5776 150.619 27.6417 151.158 29.9963 150.501C30.336 150.406 30.9867 150.293 31.3504 150.098C31.3797 150.083 31.4339 150.077 31.4339 150.044C31.4339 149.91 31.1685 149.999 31.0346 150C29.4934 150.012 28.0129 150.306 26.504 150.574C25.5982 150.735 28.2683 150.05 29.1577 149.815C29.7827 149.65 30.6178 149.545 31.2234 149.274C31.3851 149.202 30.8694 149.291 30.6933 149.311C30.1826 149.367 29.6223 149.438 29.1178 149.521C28.433 149.633 26.4088 150.12 27.0776 149.935C27.7495 149.749 28.4095 149.516 29.0706 149.296C30.0359 148.975 31.0793 148.726 32.0148 148.319C32.2945 148.198 31.7386 148.293 31.6772 148.298C31.3234 148.324 30.994 148.504 30.6643 148.628C30.1023 148.839 29.5272 149 28.9726 149.231C28.3959 149.471 27.8292 149.718 27.2155 149.841C26.9481 149.894 25.8658 150.223 26.5693 149.695C27.1021 149.296 27.7632 149.093 28.3772 148.853C28.8929 148.652 29.6345 148.492 30.0762 148.134C30.2169 148.02 29.7141 148.154 29.5353 148.182C29.1442 148.242 28.757 148.321 28.37 148.403C27.811 148.521 27.2529 148.723 26.6819 148.762C26.6099 148.767 26.1504 148.824 26.2499 148.824C26.4956 148.824 26.7296 148.775 26.9614 148.693C27.2762 148.583 27.4768 148.318 27.7818 148.2C27.9963 148.116 28.1628 148.029 28.3627 147.924C29.2971 147.432 30.1597 146.815 31.1072 146.341" stroke="#FFF3F3" stroke-linecap="round"/>
<path d="M26.2063 148.432C26.5524 148.432 26.7629 148.456 27.0522 148.24C27.3171 148.041 27.7761 148.065 28.036 147.844C28.3553 147.572 28.8665 147.548 29.1831 147.288C29.3759 147.131 29.6566 147.092 29.8656 146.944C30.2223 146.69 30.6516 146.536 31.0419 146.341" stroke="#FFF3F3" stroke-linecap="round"/>
<path d="M26.6637 148.301C28.1809 148.301 29.1995 147.419 30.5191 146.798" stroke="#FFF3F3" stroke-linecap="round"/>
<path d="M27.1956 162.029C27.4198 162.348 27.7771 162.507 28.1279 162.636C28.404 162.738 27.9556 162.67 27.8498 162.585C27.6733 162.444 27.3253 162.258 27.0829 162.258C26.796 162.258 27.1016 162.381 27.2138 162.487C27.2746 162.545 27.3888 162.63 27.4736 162.649C27.6848 162.696 27.8624 162.811 28.0716 162.873C28.2552 162.927 28.4755 162.914 28.6531 162.994C29.0931 163.194 29.6015 163.534 30.107 163.534" stroke="#FFF3F3" stroke-linecap="round"/>
<path d="M27.6536 162.193C27.414 162.182 27.1741 162.097 26.9521 162.013C26.7225 161.926 26.4904 161.849 26.2578 161.771C25.9761 161.677 25.9651 161.673 25.6726 161.571C25.5799 161.539 25.4875 161.507 25.3946 161.475C25.3219 161.45 25.1243 161.354 25.1728 161.413C25.3316 161.607 25.8484 161.664 26.0688 161.717C26.3466 161.783 26.6251 161.843 26.8975 161.929C27.1568 162.011 26.942 162.044 26.7685 162.058C26.6656 162.067 26.5609 162.062 26.4577 162.062C26.3728 162.062 26.1605 161.978 26.2033 162.051C26.2523 162.135 26.3976 162.218 26.4759 162.271C26.5565 162.326 26.8313 162.407 26.734 162.407C26.5553 162.407 26.087 162.107 26.2396 162.2C26.436 162.32 26.6987 162.455 26.9339 162.455" stroke="#FFF3F3" stroke-linecap="round"/>
<path d="M26.3441 148.158C26.5404 148.158 26.7103 148.162 26.89 148.073C27.1492 147.945 27.4102 147.838 27.6911 147.763C27.9365 147.698 28.1934 147.659 28.4257 147.551C28.5042 147.514 28.594 147.505 28.6737 147.473C29.0372 147.323 29.3771 147.11 29.7193 146.919" stroke="#FFF3F3" stroke-linecap="round"/>
<defs>
<filter id="filter0_d_9_133" x="0.613953" y="143.257" width="55.4959" height="32.2975" filterUnits="userSpaceOnUse" color-interpolation-filters="sRGB">
<feFlood flood-opacity="0" result="BackgroundImageFix"/>
<feColorMatrix in="SourceAlpha" type="matrix" values="0 0 0 0 0 0 0 0 0 0 0 0 0 0 0 0 0 0 127 0" result="hardAlpha"/>
<feOffset dy="4"/>
<feGaussianBlur stdDeviation="2"/>
<feComposite in2="hardAlpha" operator="out"/>
<feColorMatrix type="matrix" values="0 0 0 0 0 0 0 0 0 0 0 0 0 0 0 0 0 0 0.25 0"/>
<feBlend mode="normal" in2="BackgroundImageFix" result="effect1_dropShadow_9_133"/>
<feBlend mode="normal" in="SourceGraphic" in2="effect1_dropShadow_9_133" result="shape"/>
</filter>
<filter id="filter1_d_9_133" x="25" y="0" width="857" height="228" filterUnits="userSpaceOnUse" color-interpolation-filters="sRGB">
<feFlood flood-opacity="0" result="BackgroundImageFix"/>
<feColorMatrix in="SourceAlpha" type="matrix" values="0 0 0 0 0 0 0 0 0 0 0 0 0 0 0 0 0 0 127 0" result="hardAlpha"/>
<feOffset dy="4"/>
<feGaussianBlur stdDeviation="2"/>
<feComposite in2="hardAlpha" operator="out"/>
<feColorMatrix type="matrix" values="0 0 0 0 0 0 0 0 0 0 0 0 0 0 0 0 0 0 0.25 0"/>
<feBlend mode="normal" in2="BackgroundImageFix" result="effect1_dropShadow_9_133"/>
<feBlend mode="normal" in="SourceGraphic" in2="effect1_dropShadow_9_133" result="shape"/>
</filter>
</defs>
</svg>
