<svg width="715" height="351" viewBox="0 0 715 351" fill="none" xmlns="http://www.w3.org/2000/svg">
<rect width="715" height="351" rx="15" fill="#FFF3F3"/>
<path d="M164.129 269V257.364H171.969V259.392H166.589V262.165H171.566V264.193H166.589V266.972H171.992V269H164.129ZM181.141 262.761L178.925 262.898C178.888 262.708 178.806 262.538 178.681 262.386C178.556 262.231 178.391 262.108 178.187 262.017C177.986 261.922 177.746 261.875 177.465 261.875C177.09 261.875 176.774 261.955 176.516 262.114C176.259 262.269 176.13 262.477 176.13 262.739C176.13 262.947 176.213 263.123 176.38 263.267C176.547 263.411 176.833 263.527 177.238 263.614L178.817 263.932C179.666 264.106 180.299 264.386 180.715 264.773C181.132 265.159 181.34 265.667 181.34 266.295C181.34 266.867 181.172 267.369 180.835 267.801C180.501 268.233 180.043 268.57 179.46 268.812C178.88 269.051 178.211 269.17 177.454 269.17C176.299 269.17 175.378 268.93 174.692 268.449C174.011 267.964 173.611 267.305 173.494 266.472L175.874 266.347C175.946 266.699 176.121 266.968 176.397 267.153C176.674 267.335 177.028 267.426 177.46 267.426C177.884 267.426 178.225 267.345 178.482 267.182C178.744 267.015 178.876 266.801 178.88 266.54C178.876 266.32 178.783 266.14 178.602 266C178.42 265.856 178.139 265.746 177.761 265.67L176.249 265.369C175.397 265.199 174.763 264.903 174.346 264.483C173.933 264.062 173.727 263.527 173.727 262.875C173.727 262.314 173.878 261.831 174.181 261.426C174.488 261.021 174.918 260.708 175.471 260.489C176.028 260.269 176.679 260.159 177.425 260.159C178.528 260.159 179.395 260.392 180.028 260.858C180.664 261.324 181.035 261.958 181.141 262.761ZM187.506 260.273V262.091H182.251V260.273H187.506ZM183.444 258.182H185.864V266.318C185.864 266.542 185.898 266.716 185.967 266.841C186.035 266.962 186.129 267.047 186.251 267.097C186.376 267.146 186.52 267.17 186.683 267.17C186.796 267.17 186.91 267.161 187.023 267.142C187.137 267.119 187.224 267.102 187.285 267.091L187.665 268.892C187.544 268.93 187.374 268.973 187.154 269.023C186.934 269.076 186.667 269.108 186.353 269.119C185.77 269.142 185.258 269.064 184.819 268.886C184.383 268.708 184.044 268.432 183.802 268.057C183.559 267.682 183.44 267.208 183.444 266.636V258.182ZM191.572 269.165C191.015 269.165 190.519 269.068 190.083 268.875C189.647 268.678 189.303 268.388 189.049 268.006C188.799 267.619 188.674 267.138 188.674 266.562C188.674 266.078 188.763 265.67 188.941 265.341C189.119 265.011 189.362 264.746 189.668 264.545C189.975 264.345 190.324 264.193 190.714 264.091C191.108 263.989 191.521 263.917 191.952 263.875C192.46 263.822 192.869 263.773 193.18 263.727C193.49 263.678 193.716 263.606 193.856 263.511C193.996 263.417 194.066 263.277 194.066 263.091V263.057C194.066 262.697 193.952 262.419 193.725 262.222C193.502 262.025 193.183 261.926 192.771 261.926C192.335 261.926 191.988 262.023 191.731 262.216C191.473 262.405 191.303 262.644 191.219 262.932L188.981 262.75C189.094 262.22 189.318 261.761 189.651 261.375C189.985 260.985 190.415 260.686 190.941 260.477C191.471 260.265 192.085 260.159 192.782 260.159C193.267 260.159 193.731 260.216 194.174 260.33C194.621 260.443 195.017 260.619 195.362 260.858C195.71 261.097 195.985 261.403 196.185 261.778C196.386 262.15 196.487 262.595 196.487 263.114V269H194.191V267.79H194.123C193.983 268.062 193.795 268.303 193.56 268.511C193.326 268.716 193.043 268.877 192.714 268.994C192.384 269.108 192.004 269.165 191.572 269.165ZM192.265 267.494C192.621 267.494 192.935 267.424 193.208 267.284C193.481 267.14 193.695 266.947 193.85 266.705C194.005 266.462 194.083 266.187 194.083 265.881V264.955C194.007 265.004 193.903 265.049 193.771 265.091C193.642 265.129 193.496 265.165 193.333 265.199C193.17 265.229 193.007 265.258 192.844 265.284C192.682 265.307 192.534 265.328 192.401 265.347C192.117 265.388 191.869 265.455 191.657 265.545C191.445 265.636 191.28 265.759 191.163 265.915C191.045 266.066 190.987 266.256 190.987 266.483C190.987 266.812 191.106 267.064 191.344 267.239C191.587 267.409 191.894 267.494 192.265 267.494ZM192.004 259.148L193.208 256.562H195.447L193.714 259.148H192.004ZM202.296 272.455C201.512 272.455 200.84 272.347 200.279 272.131C199.722 271.919 199.279 271.629 198.95 271.261C198.62 270.894 198.406 270.481 198.308 270.023L200.546 269.722C200.614 269.896 200.722 270.059 200.87 270.21C201.018 270.362 201.213 270.483 201.455 270.574C201.701 270.669 202.001 270.716 202.353 270.716C202.879 270.716 203.313 270.587 203.654 270.33C203.999 270.076 204.171 269.65 204.171 269.051V267.455H204.069C203.963 267.697 203.804 267.926 203.592 268.142C203.379 268.358 203.107 268.534 202.773 268.67C202.44 268.807 202.042 268.875 201.58 268.875C200.925 268.875 200.328 268.723 199.79 268.42C199.256 268.114 198.83 267.646 198.512 267.017C198.198 266.384 198.04 265.585 198.04 264.619C198.04 263.631 198.201 262.805 198.523 262.142C198.845 261.479 199.273 260.983 199.808 260.653C200.345 260.324 200.934 260.159 201.575 260.159C202.063 260.159 202.472 260.242 202.802 260.409C203.131 260.572 203.397 260.777 203.597 261.023C203.802 261.265 203.959 261.504 204.069 261.739H204.16V260.273H206.563V269.085C206.563 269.828 206.381 270.449 206.018 270.949C205.654 271.449 205.15 271.824 204.506 272.074C203.866 272.328 203.129 272.455 202.296 272.455ZM202.347 267.057C202.737 267.057 203.067 266.96 203.336 266.767C203.609 266.57 203.817 266.29 203.961 265.926C204.109 265.559 204.183 265.119 204.183 264.608C204.183 264.097 204.111 263.653 203.967 263.278C203.823 262.9 203.614 262.606 203.342 262.398C203.069 262.189 202.737 262.085 202.347 262.085C201.95 262.085 201.614 262.193 201.342 262.409C201.069 262.621 200.862 262.917 200.722 263.295C200.582 263.674 200.512 264.112 200.512 264.608C200.512 265.112 200.582 265.547 200.722 265.915C200.866 266.278 201.073 266.561 201.342 266.761C201.614 266.958 201.95 267.057 202.347 267.057ZM208.489 269V260.273H210.91V269H208.489ZM209.705 259.148C209.345 259.148 209.037 259.028 208.779 258.79C208.525 258.547 208.398 258.258 208.398 257.92C208.398 257.587 208.525 257.301 208.779 257.062C209.037 256.82 209.345 256.699 209.705 256.699C210.065 256.699 210.372 256.82 210.626 257.062C210.883 257.301 211.012 257.587 211.012 257.92C211.012 258.258 210.883 258.547 210.626 258.79C210.372 259.028 210.065 259.148 209.705 259.148ZM216.792 269.17C215.909 269.17 215.146 268.983 214.502 268.608C213.862 268.229 213.368 267.703 213.019 267.028C212.671 266.35 212.496 265.564 212.496 264.67C212.496 263.769 212.671 262.981 213.019 262.307C213.368 261.629 213.862 261.102 214.502 260.727C215.146 260.348 215.909 260.159 216.792 260.159C217.674 260.159 218.436 260.348 219.076 260.727C219.72 261.102 220.216 261.629 220.565 262.307C220.913 262.981 221.087 263.769 221.087 264.67C221.087 265.564 220.913 266.35 220.565 267.028C220.216 267.703 219.72 268.229 219.076 268.608C218.436 268.983 217.674 269.17 216.792 269.17ZM216.803 267.295C217.205 267.295 217.54 267.182 217.809 266.955C218.078 266.723 218.281 266.409 218.417 266.011C218.557 265.614 218.627 265.161 218.627 264.653C218.627 264.146 218.557 263.693 218.417 263.295C218.281 262.898 218.078 262.583 217.809 262.352C217.54 262.121 217.205 262.006 216.803 262.006C216.398 262.006 216.057 262.121 215.781 262.352C215.508 262.583 215.301 262.898 215.161 263.295C215.025 263.693 214.957 264.146 214.957 264.653C214.957 265.161 215.025 265.614 215.161 266.011C215.301 266.409 215.508 266.723 215.781 266.955C216.057 267.182 216.398 267.295 216.803 267.295ZM230.308 269.17C229.414 269.17 228.645 268.981 228.001 268.602C227.361 268.22 226.868 267.689 226.523 267.011C226.183 266.333 226.012 265.553 226.012 264.67C226.012 263.777 226.184 262.992 226.529 262.318C226.878 261.64 227.372 261.112 228.012 260.733C228.652 260.35 229.414 260.159 230.296 260.159C231.058 260.159 231.724 260.297 232.296 260.574C232.868 260.85 233.321 261.239 233.654 261.739C233.987 262.239 234.171 262.826 234.205 263.5H231.921C231.857 263.064 231.686 262.714 231.41 262.449C231.137 262.18 230.779 262.045 230.336 262.045C229.961 262.045 229.633 262.148 229.353 262.352C229.076 262.553 228.861 262.847 228.705 263.233C228.55 263.619 228.472 264.087 228.472 264.636C228.472 265.193 228.548 265.667 228.7 266.057C228.855 266.447 229.073 266.744 229.353 266.949C229.633 267.153 229.961 267.256 230.336 267.256C230.612 267.256 230.861 267.199 231.08 267.085C231.304 266.972 231.487 266.807 231.631 266.591C231.779 266.371 231.876 266.108 231.921 265.801H234.205C234.167 266.468 233.986 267.055 233.66 267.562C233.338 268.066 232.893 268.46 232.325 268.744C231.756 269.028 231.084 269.17 230.308 269.17ZM239.698 269.17C238.816 269.17 238.052 268.983 237.408 268.608C236.768 268.229 236.274 267.703 235.925 267.028C235.577 266.35 235.403 265.564 235.403 264.67C235.403 263.769 235.577 262.981 235.925 262.307C236.274 261.629 236.768 261.102 237.408 260.727C238.052 260.348 238.816 260.159 239.698 260.159C240.581 260.159 241.342 260.348 241.982 260.727C242.626 261.102 243.122 261.629 243.471 262.307C243.819 262.981 243.994 263.769 243.994 264.67C243.994 265.564 243.819 266.35 243.471 267.028C243.122 267.703 242.626 268.229 241.982 268.608C241.342 268.983 240.581 269.17 239.698 269.17ZM239.71 267.295C240.111 267.295 240.446 267.182 240.715 266.955C240.984 266.723 241.187 266.409 241.323 266.011C241.463 265.614 241.533 265.161 241.533 264.653C241.533 264.146 241.463 263.693 241.323 263.295C241.187 262.898 240.984 262.583 240.715 262.352C240.446 262.121 240.111 262.006 239.71 262.006C239.304 262.006 238.963 262.121 238.687 262.352C238.414 262.583 238.208 262.898 238.067 263.295C237.931 263.693 237.863 264.146 237.863 264.653C237.863 265.161 237.931 265.614 238.067 266.011C238.208 266.409 238.414 266.723 238.687 266.955C238.963 267.182 239.304 267.295 239.71 267.295ZM245.567 269V260.273H247.874V261.812H247.977C248.158 261.301 248.461 260.898 248.886 260.602C249.31 260.307 249.817 260.159 250.408 260.159C251.007 260.159 251.516 260.309 251.937 260.608C252.357 260.903 252.638 261.305 252.778 261.812H252.869C253.047 261.312 253.369 260.913 253.835 260.614C254.304 260.311 254.859 260.159 255.499 260.159C256.314 260.159 256.975 260.419 257.482 260.938C257.994 261.453 258.249 262.184 258.249 263.131V269H255.835V263.608C255.835 263.123 255.706 262.759 255.448 262.517C255.191 262.275 254.869 262.153 254.482 262.153C254.043 262.153 253.7 262.294 253.454 262.574C253.208 262.85 253.085 263.216 253.085 263.67V269H250.738V263.557C250.738 263.129 250.615 262.788 250.369 262.534C250.126 262.28 249.806 262.153 249.408 262.153C249.139 262.153 248.897 262.222 248.681 262.358C248.469 262.491 248.3 262.678 248.175 262.92C248.05 263.159 247.988 263.439 247.988 263.761V269H245.567ZM264.104 269.17C263.222 269.17 262.459 268.983 261.815 268.608C261.174 268.229 260.68 267.703 260.332 267.028C259.983 266.35 259.809 265.564 259.809 264.67C259.809 263.769 259.983 262.981 260.332 262.307C260.68 261.629 261.174 261.102 261.815 260.727C262.459 260.348 263.222 260.159 264.104 260.159C264.987 260.159 265.748 260.348 266.388 260.727C267.032 261.102 267.529 261.629 267.877 262.307C268.226 262.981 268.4 263.769 268.4 264.67C268.4 265.564 268.226 266.35 267.877 267.028C267.529 267.703 267.032 268.229 266.388 268.608C265.748 268.983 264.987 269.17 264.104 269.17ZM264.116 267.295C264.517 267.295 264.853 267.182 265.121 266.955C265.39 266.723 265.593 266.409 265.729 266.011C265.87 265.614 265.94 265.161 265.94 264.653C265.94 264.146 265.87 263.693 265.729 263.295C265.593 262.898 265.39 262.583 265.121 262.352C264.853 262.121 264.517 262.006 264.116 262.006C263.71 262.006 263.37 262.121 263.093 262.352C262.82 262.583 262.614 262.898 262.474 263.295C262.337 263.693 262.269 264.146 262.269 264.653C262.269 265.161 262.337 265.614 262.474 266.011C262.614 266.409 262.82 266.723 263.093 266.955C263.37 267.182 263.71 267.295 264.116 267.295ZM278.114 264.955H280.205L281.256 266.307L282.29 267.511L284.239 269.955H281.944L280.603 268.307L279.915 267.33L278.114 264.955ZM284.415 263.182C284.415 264.451 284.175 265.53 283.694 266.42C283.217 267.311 282.565 267.991 281.739 268.46C280.917 268.926 279.993 269.159 278.967 269.159C277.933 269.159 277.004 268.924 276.183 268.455C275.361 267.985 274.711 267.305 274.234 266.415C273.756 265.525 273.518 264.447 273.518 263.182C273.518 261.913 273.756 260.833 274.234 259.943C274.711 259.053 275.361 258.375 276.183 257.909C277.004 257.439 277.933 257.205 278.967 257.205C279.993 257.205 280.917 257.439 281.739 257.909C282.565 258.375 283.217 259.053 283.694 259.943C284.175 260.833 284.415 261.913 284.415 263.182ZM281.921 263.182C281.921 262.36 281.798 261.667 281.552 261.102C281.309 260.538 280.967 260.11 280.523 259.818C280.08 259.527 279.561 259.381 278.967 259.381C278.372 259.381 277.853 259.527 277.41 259.818C276.967 260.11 276.622 260.538 276.376 261.102C276.133 261.667 276.012 262.36 276.012 263.182C276.012 264.004 276.133 264.697 276.376 265.261C276.622 265.826 276.967 266.254 277.41 266.545C277.853 266.837 278.372 266.983 278.967 266.983C279.561 266.983 280.08 266.837 280.523 266.545C280.967 266.254 281.309 265.826 281.552 265.261C281.798 264.697 281.921 264.004 281.921 263.182ZM287.587 269H284.951L288.968 257.364H292.138L296.15 269H293.513L290.599 260.023H290.508L287.587 269ZM287.423 264.426H293.65V266.347H287.423V264.426ZM305.185 269.17C304.288 269.17 303.515 268.989 302.867 268.625C302.223 268.258 301.727 267.739 301.379 267.068C301.03 266.394 300.856 265.597 300.856 264.676C300.856 263.778 301.03 262.991 301.379 262.312C301.727 261.634 302.218 261.106 302.85 260.727C303.487 260.348 304.233 260.159 305.089 260.159C305.665 260.159 306.201 260.252 306.697 260.438C307.197 260.619 307.632 260.894 308.004 261.261C308.379 261.629 308.67 262.091 308.879 262.648C309.087 263.201 309.191 263.848 309.191 264.591V265.256H301.822V263.756H306.913C306.913 263.407 306.837 263.098 306.685 262.83C306.534 262.561 306.324 262.35 306.055 262.199C305.79 262.044 305.481 261.966 305.129 261.966C304.761 261.966 304.435 262.051 304.151 262.222C303.871 262.388 303.651 262.614 303.492 262.898C303.333 263.178 303.252 263.491 303.248 263.835V265.261C303.248 265.693 303.327 266.066 303.487 266.381C303.649 266.695 303.879 266.938 304.174 267.108C304.469 267.278 304.82 267.364 305.225 267.364C305.494 267.364 305.74 267.326 305.964 267.25C306.187 267.174 306.379 267.061 306.538 266.909C306.697 266.758 306.818 266.572 306.901 266.352L309.14 266.5C309.026 267.038 308.793 267.508 308.441 267.909C308.093 268.307 307.642 268.617 307.089 268.841C306.54 269.061 305.905 269.17 305.185 269.17ZM317.69 269.142C317.027 269.142 316.426 268.972 315.888 268.631C315.354 268.286 314.93 267.78 314.616 267.114C314.305 266.443 314.15 265.621 314.15 264.648C314.15 263.648 314.311 262.816 314.633 262.153C314.955 261.487 315.383 260.989 315.917 260.659C316.455 260.326 317.044 260.159 317.684 260.159C318.173 260.159 318.58 260.242 318.906 260.409C319.235 260.572 319.5 260.777 319.701 261.023C319.906 261.265 320.061 261.504 320.167 261.739H320.241V257.364H322.656V269H320.269V267.602H320.167C320.053 267.845 319.892 268.085 319.684 268.324C319.479 268.559 319.212 268.754 318.883 268.909C318.557 269.064 318.159 269.142 317.69 269.142ZM318.457 267.216C318.847 267.216 319.176 267.11 319.445 266.898C319.718 266.682 319.926 266.381 320.07 265.994C320.218 265.608 320.292 265.155 320.292 264.636C320.292 264.117 320.22 263.667 320.076 263.284C319.932 262.902 319.724 262.606 319.451 262.398C319.178 262.189 318.847 262.085 318.457 262.085C318.059 262.085 317.724 262.193 317.451 262.409C317.178 262.625 316.972 262.924 316.832 263.307C316.692 263.689 316.621 264.133 316.621 264.636C316.621 265.144 316.692 265.593 316.832 265.983C316.976 266.369 317.182 266.672 317.451 266.892C317.724 267.108 318.059 267.216 318.457 267.216ZM328.623 269.17C327.725 269.17 326.952 268.989 326.305 268.625C325.661 268.258 325.165 267.739 324.816 267.068C324.468 266.394 324.293 265.597 324.293 264.676C324.293 263.778 324.468 262.991 324.816 262.312C325.165 261.634 325.655 261.106 326.288 260.727C326.924 260.348 327.67 260.159 328.526 260.159C329.102 260.159 329.638 260.252 330.134 260.438C330.634 260.619 331.07 260.894 331.441 261.261C331.816 261.629 332.108 262.091 332.316 262.648C332.524 263.201 332.629 263.848 332.629 264.591V265.256H325.259V263.756H330.35C330.35 263.407 330.274 263.098 330.123 262.83C329.971 262.561 329.761 262.35 329.492 262.199C329.227 262.044 328.918 261.966 328.566 261.966C328.199 261.966 327.873 262.051 327.589 262.222C327.308 262.388 327.089 262.614 326.93 262.898C326.771 263.178 326.689 263.491 326.685 263.835V265.261C326.685 265.693 326.765 266.066 326.924 266.381C327.087 266.695 327.316 266.938 327.612 267.108C327.907 267.278 328.257 267.364 328.663 267.364C328.932 267.364 329.178 267.326 329.401 267.25C329.625 267.174 329.816 267.061 329.975 266.909C330.134 266.758 330.255 266.572 330.339 266.352L332.577 266.5C332.464 267.038 332.231 267.508 331.879 267.909C331.53 268.307 331.079 268.617 330.526 268.841C329.977 269.061 329.343 269.17 328.623 269.17ZM341.469 262.761L339.254 262.898C339.216 262.708 339.134 262.538 339.009 262.386C338.884 262.231 338.719 262.108 338.515 262.017C338.314 261.922 338.074 261.875 337.793 261.875C337.418 261.875 337.102 261.955 336.844 262.114C336.587 262.269 336.458 262.477 336.458 262.739C336.458 262.947 336.541 263.123 336.708 263.267C336.875 263.411 337.161 263.527 337.566 263.614L339.146 263.932C339.994 264.106 340.627 264.386 341.043 264.773C341.46 265.159 341.668 265.667 341.668 266.295C341.668 266.867 341.5 267.369 341.163 267.801C340.829 268.233 340.371 268.57 339.788 268.812C339.208 269.051 338.54 269.17 337.782 269.17C336.627 269.17 335.706 268.93 335.021 268.449C334.339 267.964 333.939 267.305 333.822 266.472L336.202 266.347C336.274 266.699 336.449 266.968 336.725 267.153C337.002 267.335 337.356 267.426 337.788 267.426C338.212 267.426 338.553 267.345 338.81 267.182C339.072 267.015 339.204 266.801 339.208 266.54C339.204 266.32 339.112 266.14 338.93 266C338.748 265.856 338.468 265.746 338.089 265.67L336.577 265.369C335.725 265.199 335.091 264.903 334.674 264.483C334.261 264.062 334.055 263.527 334.055 262.875C334.055 262.314 334.206 261.831 334.509 261.426C334.816 261.021 335.246 260.708 335.799 260.489C336.356 260.269 337.007 260.159 337.754 260.159C338.856 260.159 339.723 260.392 340.356 260.858C340.992 261.324 341.363 261.958 341.469 262.761ZM347.17 269.17C346.272 269.17 345.499 268.989 344.852 268.625C344.208 268.258 343.711 267.739 343.363 267.068C343.014 266.394 342.84 265.597 342.84 264.676C342.84 263.778 343.014 262.991 343.363 262.312C343.711 261.634 344.202 261.106 344.835 260.727C345.471 260.348 346.217 260.159 347.073 260.159C347.649 260.159 348.185 260.252 348.681 260.438C349.181 260.619 349.617 260.894 349.988 261.261C350.363 261.629 350.655 262.091 350.863 262.648C351.071 263.201 351.175 263.848 351.175 264.591V265.256H343.806V263.756H348.897C348.897 263.407 348.821 263.098 348.67 262.83C348.518 262.561 348.308 262.35 348.039 262.199C347.774 262.044 347.465 261.966 347.113 261.966C346.746 261.966 346.42 262.051 346.136 262.222C345.855 262.388 345.636 262.614 345.477 262.898C345.317 263.178 345.236 263.491 345.232 263.835V265.261C345.232 265.693 345.312 266.066 345.471 266.381C345.634 266.695 345.863 266.938 346.158 267.108C346.454 267.278 346.804 267.364 347.21 267.364C347.478 267.364 347.725 267.326 347.948 267.25C348.172 267.174 348.363 267.061 348.522 266.909C348.681 266.758 348.802 266.572 348.886 266.352L351.124 266.5C351.011 267.038 350.778 267.508 350.425 267.909C350.077 268.307 349.626 268.617 349.073 268.841C348.524 269.061 347.889 269.17 347.17 269.17ZM355.175 263.955V269H352.755V260.273H355.062V261.812H355.164C355.357 261.305 355.681 260.903 356.136 260.608C356.59 260.309 357.141 260.159 357.789 260.159C358.395 260.159 358.924 260.292 359.374 260.557C359.825 260.822 360.175 261.201 360.425 261.693C360.675 262.182 360.8 262.765 360.8 263.443V269H358.38V263.875C358.384 263.341 358.247 262.924 357.971 262.625C357.694 262.322 357.314 262.17 356.829 262.17C356.503 262.17 356.215 262.241 355.965 262.381C355.719 262.521 355.526 262.725 355.386 262.994C355.249 263.259 355.179 263.58 355.175 263.955ZM370.532 260.273L367.481 269H364.754L361.702 260.273H364.259L366.072 266.517H366.163L367.969 260.273H370.532ZM375.433 269.17C374.55 269.17 373.787 268.983 373.143 268.608C372.503 268.229 372.008 267.703 371.66 267.028C371.311 266.35 371.137 265.564 371.137 264.67C371.137 263.769 371.311 262.981 371.66 262.307C372.008 261.629 372.503 261.102 373.143 260.727C373.787 260.348 374.55 260.159 375.433 260.159C376.315 260.159 377.076 260.348 377.717 260.727C378.361 261.102 378.857 261.629 379.205 262.307C379.554 262.981 379.728 263.769 379.728 264.67C379.728 265.564 379.554 266.35 379.205 267.028C378.857 267.703 378.361 268.229 377.717 268.608C377.076 268.983 376.315 269.17 375.433 269.17ZM375.444 267.295C375.845 267.295 376.181 267.182 376.45 266.955C376.719 266.723 376.921 266.409 377.058 266.011C377.198 265.614 377.268 265.161 377.268 264.653C377.268 264.146 377.198 263.693 377.058 263.295C376.921 262.898 376.719 262.583 376.45 262.352C376.181 262.121 375.845 262.006 375.444 262.006C375.039 262.006 374.698 262.121 374.421 262.352C374.148 262.583 373.942 262.898 373.802 263.295C373.665 263.693 373.597 264.146 373.597 264.653C373.597 265.161 373.665 265.614 373.802 266.011C373.942 266.409 374.148 266.723 374.421 266.955C374.698 267.182 375.039 267.295 375.444 267.295ZM383.722 257.364V269H381.302V257.364H383.722ZM393.798 260.273L390.746 269H388.019L384.968 260.273H387.525L389.337 266.517H389.428L391.235 260.273H393.798ZM398.732 269.17C397.835 269.17 397.062 268.989 396.414 268.625C395.77 268.258 395.274 267.739 394.925 267.068C394.577 266.394 394.403 265.597 394.403 264.676C394.403 263.778 394.577 262.991 394.925 262.312C395.274 261.634 395.764 261.106 396.397 260.727C397.033 260.348 397.78 260.159 398.636 260.159C399.211 260.159 399.747 260.252 400.244 260.438C400.744 260.619 401.179 260.894 401.55 261.261C401.925 261.629 402.217 262.091 402.425 262.648C402.634 263.201 402.738 263.848 402.738 264.591V265.256H395.369V263.756H400.46C400.46 263.407 400.384 263.098 400.232 262.83C400.081 262.561 399.871 262.35 399.602 262.199C399.336 262.044 399.028 261.966 398.675 261.966C398.308 261.966 397.982 262.051 397.698 262.222C397.418 262.388 397.198 262.614 397.039 262.898C396.88 263.178 396.799 263.491 396.795 263.835V265.261C396.795 265.693 396.874 266.066 397.033 266.381C397.196 266.695 397.425 266.938 397.721 267.108C398.016 267.278 398.367 267.364 398.772 267.364C399.041 267.364 399.287 267.326 399.511 267.25C399.734 267.174 399.925 267.061 400.085 266.909C400.244 266.758 400.365 266.572 400.448 266.352L402.687 266.5C402.573 267.038 402.34 267.508 401.988 267.909C401.639 268.307 401.189 268.617 400.636 268.841C400.086 269.061 399.452 269.17 398.732 269.17ZM407.533 269.142C406.871 269.142 406.27 268.972 405.732 268.631C405.198 268.286 404.774 267.78 404.46 267.114C404.149 266.443 403.994 265.621 403.994 264.648C403.994 263.648 404.155 262.816 404.477 262.153C404.799 261.487 405.227 260.989 405.761 260.659C406.299 260.326 406.888 260.159 407.528 260.159C408.016 260.159 408.424 260.242 408.749 260.409C409.079 260.572 409.344 260.777 409.545 261.023C409.749 261.265 409.905 261.504 410.011 261.739H410.085V257.364H412.499V269H410.113V267.602H410.011C409.897 267.845 409.736 268.085 409.528 268.324C409.323 268.559 409.056 268.754 408.727 268.909C408.401 269.064 408.003 269.142 407.533 269.142ZM408.3 267.216C408.691 267.216 409.02 267.11 409.289 266.898C409.562 266.682 409.77 266.381 409.914 265.994C410.062 265.608 410.136 265.155 410.136 264.636C410.136 264.117 410.064 263.667 409.92 263.284C409.776 262.902 409.567 262.606 409.295 262.398C409.022 262.189 408.691 262.085 408.3 262.085C407.903 262.085 407.567 262.193 407.295 262.409C407.022 262.625 406.816 262.924 406.675 263.307C406.535 263.689 406.465 264.133 406.465 264.636C406.465 265.144 406.535 265.593 406.675 265.983C406.819 266.369 407.026 266.672 407.295 266.892C407.567 267.108 407.903 267.216 408.3 267.216ZM418.433 269.17C417.55 269.17 416.787 268.983 416.143 268.608C415.503 268.229 415.008 267.703 414.66 267.028C414.311 266.35 414.137 265.564 414.137 264.67C414.137 263.769 414.311 262.981 414.66 262.307C415.008 261.629 415.503 261.102 416.143 260.727C416.787 260.348 417.55 260.159 418.433 260.159C419.315 260.159 420.076 260.348 420.717 260.727C421.361 261.102 421.857 261.629 422.205 262.307C422.554 262.981 422.728 263.769 422.728 264.67C422.728 265.564 422.554 266.35 422.205 267.028C421.857 267.703 421.361 268.229 420.717 268.608C420.076 268.983 419.315 269.17 418.433 269.17ZM418.444 267.295C418.845 267.295 419.181 267.182 419.45 266.955C419.719 266.723 419.921 266.409 420.058 266.011C420.198 265.614 420.268 265.161 420.268 264.653C420.268 264.146 420.198 263.693 420.058 263.295C419.921 262.898 419.719 262.583 419.45 262.352C419.181 262.121 418.845 262.006 418.444 262.006C418.039 262.006 417.698 262.121 417.421 262.352C417.148 262.583 416.942 262.898 416.802 263.295C416.665 263.693 416.597 264.146 416.597 264.653C416.597 265.161 416.665 265.614 416.802 266.011C416.942 266.409 417.148 266.723 417.421 266.955C417.698 267.182 418.039 267.295 418.444 267.295ZM424.302 269V260.273H426.648V261.795H426.739C426.898 261.254 427.165 260.845 427.54 260.568C427.915 260.288 428.347 260.148 428.836 260.148C428.957 260.148 429.088 260.155 429.228 260.17C429.368 260.186 429.491 260.206 429.597 260.233V262.381C429.484 262.347 429.326 262.316 429.126 262.29C428.925 262.263 428.741 262.25 428.575 262.25C428.219 262.25 427.9 262.328 427.62 262.483C427.344 262.634 427.124 262.847 426.961 263.119C426.802 263.392 426.722 263.706 426.722 264.062V269H424.302ZM433.087 269.165C432.531 269.165 432.034 269.068 431.599 268.875C431.163 268.678 430.818 268.388 430.565 268.006C430.315 267.619 430.19 267.138 430.19 266.562C430.19 266.078 430.279 265.67 430.457 265.341C430.635 265.011 430.877 264.746 431.184 264.545C431.491 264.345 431.839 264.193 432.229 264.091C432.623 263.989 433.036 263.917 433.468 263.875C433.976 263.822 434.385 263.773 434.695 263.727C435.006 263.678 435.231 263.606 435.371 263.511C435.512 263.417 435.582 263.277 435.582 263.091V263.057C435.582 262.697 435.468 262.419 435.241 262.222C435.017 262.025 434.699 261.926 434.286 261.926C433.851 261.926 433.504 262.023 433.246 262.216C432.989 262.405 432.818 262.644 432.735 262.932L430.496 262.75C430.61 262.22 430.834 261.761 431.167 261.375C431.5 260.985 431.93 260.686 432.457 260.477C432.987 260.265 433.601 260.159 434.298 260.159C434.782 260.159 435.246 260.216 435.69 260.33C436.137 260.443 436.532 260.619 436.877 260.858C437.226 261.097 437.5 261.403 437.701 261.778C437.902 262.15 438.002 262.595 438.002 263.114V269H435.707V267.79H435.638C435.498 268.062 435.311 268.303 435.076 268.511C434.841 268.716 434.559 268.877 434.229 268.994C433.9 269.108 433.519 269.165 433.087 269.165ZM433.781 267.494C434.137 267.494 434.451 267.424 434.724 267.284C434.996 267.14 435.21 266.947 435.366 266.705C435.521 266.462 435.599 266.187 435.599 265.881V264.955C435.523 265.004 435.419 265.049 435.286 265.091C435.157 265.129 435.012 265.165 434.849 265.199C434.686 265.229 434.523 265.258 434.36 265.284C434.197 265.307 434.049 265.328 433.917 265.347C433.633 265.388 433.385 265.455 433.173 265.545C432.96 265.636 432.796 265.759 432.678 265.915C432.561 266.066 432.502 266.256 432.502 266.483C432.502 266.812 432.621 267.064 432.86 267.239C433.103 267.409 433.409 267.494 433.781 267.494ZM443.629 269V257.364H451.333V259.392H446.089V262.165H450.822V264.193H446.089V269H443.629ZM452.802 269V260.273H455.148V261.795H455.239C455.398 261.254 455.665 260.845 456.04 260.568C456.415 260.288 456.847 260.148 457.336 260.148C457.457 260.148 457.588 260.155 457.728 260.17C457.868 260.186 457.991 260.206 458.097 260.233V262.381C457.984 262.347 457.826 262.316 457.626 262.29C457.425 262.263 457.241 262.25 457.075 262.25C456.719 262.25 456.4 262.328 456.12 262.483C455.844 262.634 455.624 262.847 455.461 263.119C455.302 263.392 455.222 263.706 455.222 264.062V269H452.802ZM462.886 269.17C462.003 269.17 461.24 268.983 460.596 268.608C459.956 268.229 459.461 267.703 459.113 267.028C458.764 266.35 458.59 265.564 458.59 264.67C458.59 263.769 458.764 262.981 459.113 262.307C459.461 261.629 459.956 261.102 460.596 260.727C461.24 260.348 462.003 260.159 462.886 260.159C463.768 260.159 464.53 260.348 465.17 260.727C465.814 261.102 466.31 261.629 466.658 262.307C467.007 262.981 467.181 263.769 467.181 264.67C467.181 265.564 467.007 266.35 466.658 267.028C466.31 267.703 465.814 268.229 465.17 268.608C464.53 268.983 463.768 269.17 462.886 269.17ZM462.897 267.295C463.299 267.295 463.634 267.182 463.903 266.955C464.172 266.723 464.374 266.409 464.511 266.011C464.651 265.614 464.721 265.161 464.721 264.653C464.721 264.146 464.651 263.693 464.511 263.295C464.374 262.898 464.172 262.583 463.903 262.352C463.634 262.121 463.299 262.006 462.897 262.006C462.492 262.006 462.151 262.121 461.874 262.352C461.602 262.583 461.395 262.898 461.255 263.295C461.119 263.693 461.05 264.146 461.05 264.653C461.05 265.161 461.119 265.614 461.255 266.011C461.395 266.409 461.602 266.723 461.874 266.955C462.151 267.182 462.492 267.295 462.897 267.295ZM471.175 263.955V269H468.755V260.273H471.062V261.812H471.164C471.357 261.305 471.681 260.903 472.136 260.608C472.59 260.309 473.141 260.159 473.789 260.159C474.395 260.159 474.924 260.292 475.374 260.557C475.825 260.822 476.175 261.201 476.425 261.693C476.675 262.182 476.8 262.765 476.8 263.443V269H474.38V263.875C474.384 263.341 474.247 262.924 473.971 262.625C473.694 262.322 473.314 262.17 472.829 262.17C472.503 262.17 472.215 262.241 471.965 262.381C471.719 262.521 471.526 262.725 471.386 262.994C471.249 263.259 471.179 263.58 471.175 263.955ZM483.35 260.273V262.091H478.094V260.273H483.35ZM479.288 258.182H481.708V266.318C481.708 266.542 481.742 266.716 481.81 266.841C481.879 266.962 481.973 267.047 482.094 267.097C482.219 267.146 482.363 267.17 482.526 267.17C482.64 267.17 482.754 267.161 482.867 267.142C482.981 267.119 483.068 267.102 483.129 267.091L483.509 268.892C483.388 268.93 483.218 268.973 482.998 269.023C482.778 269.076 482.511 269.108 482.197 269.119C481.613 269.142 481.102 269.064 480.663 268.886C480.227 268.708 479.888 268.432 479.646 268.057C479.403 267.682 479.284 267.208 479.288 266.636V258.182ZM490.099 263.261V265.182H484.792V263.261H490.099ZM496.138 269.17C495.241 269.17 494.468 268.989 493.82 268.625C493.176 268.258 492.68 267.739 492.332 267.068C491.983 266.394 491.809 265.597 491.809 264.676C491.809 263.778 491.983 262.991 492.332 262.312C492.68 261.634 493.171 261.106 493.803 260.727C494.44 260.348 495.186 260.159 496.042 260.159C496.618 260.159 497.154 260.252 497.65 260.438C498.15 260.619 498.585 260.894 498.957 261.261C499.332 261.629 499.623 262.091 499.832 262.648C500.04 263.201 500.144 263.848 500.144 264.591V265.256H492.775V263.756H497.866C497.866 263.407 497.79 263.098 497.638 262.83C497.487 262.561 497.277 262.35 497.008 262.199C496.743 262.044 496.434 261.966 496.082 261.966C495.714 261.966 495.388 262.051 495.104 262.222C494.824 262.388 494.604 262.614 494.445 262.898C494.286 263.178 494.205 263.491 494.201 263.835V265.261C494.201 265.693 494.281 266.066 494.44 266.381C494.603 266.695 494.832 266.938 495.127 267.108C495.423 267.278 495.773 267.364 496.178 267.364C496.447 267.364 496.693 267.326 496.917 267.25C497.14 267.174 497.332 267.061 497.491 266.909C497.65 266.758 497.771 266.572 497.854 266.352L500.093 266.5C499.979 267.038 499.746 267.508 499.394 267.909C499.046 268.307 498.595 268.617 498.042 268.841C497.493 269.061 496.858 269.17 496.138 269.17ZM504.144 263.955V269H501.724V260.273H504.031V261.812H504.133C504.326 261.305 504.65 260.903 505.104 260.608C505.559 260.309 506.11 260.159 506.758 260.159C507.364 260.159 507.892 260.292 508.343 260.557C508.794 260.822 509.144 261.201 509.394 261.693C509.644 262.182 509.769 262.765 509.769 263.443V269H507.349V263.875C507.353 263.341 507.216 262.924 506.94 262.625C506.663 262.322 506.282 262.17 505.798 262.17C505.472 262.17 505.184 262.241 504.934 262.381C504.688 262.521 504.495 262.725 504.354 262.994C504.218 263.259 504.148 263.58 504.144 263.955ZM514.893 269.142C514.23 269.142 513.629 268.972 513.092 268.631C512.558 268.286 512.133 267.78 511.819 267.114C511.508 266.443 511.353 265.621 511.353 264.648C511.353 263.648 511.514 262.816 511.836 262.153C512.158 261.487 512.586 260.989 513.12 260.659C513.658 260.326 514.247 260.159 514.887 260.159C515.376 260.159 515.783 260.242 516.109 260.409C516.438 260.572 516.703 260.777 516.904 261.023C517.109 261.265 517.264 261.504 517.37 261.739H517.444V257.364H519.859V269H517.472V267.602H517.37C517.256 267.845 517.095 268.085 516.887 268.324C516.683 268.559 516.415 268.754 516.086 268.909C515.76 269.064 515.362 269.142 514.893 269.142ZM515.66 267.216C516.05 267.216 516.379 267.11 516.648 266.898C516.921 266.682 517.129 266.381 517.273 265.994C517.421 265.608 517.495 265.155 517.495 264.636C517.495 264.117 517.423 263.667 517.279 263.284C517.135 262.902 516.927 262.606 516.654 262.398C516.381 262.189 516.05 262.085 515.66 262.085C515.262 262.085 514.927 262.193 514.654 262.409C514.381 262.625 514.175 262.924 514.035 263.307C513.895 263.689 513.825 264.133 513.825 264.636C513.825 265.144 513.895 265.593 514.035 265.983C514.179 266.369 514.385 266.672 514.654 266.892C514.927 267.108 515.262 267.216 515.66 267.216ZM273.482 288.256C272.505 288.252 271.664 288.011 270.96 287.534C270.259 287.057 269.719 286.366 269.34 285.46C268.965 284.555 268.78 283.466 268.783 282.193C268.783 280.924 268.971 279.843 269.346 278.949C269.725 278.055 270.264 277.375 270.965 276.909C271.67 276.439 272.509 276.205 273.482 276.205C274.456 276.205 275.293 276.439 275.994 276.909C276.698 277.379 277.24 278.061 277.619 278.955C277.997 279.845 278.185 280.924 278.181 282.193C278.181 283.47 277.992 284.561 277.613 285.466C277.238 286.371 276.7 287.062 275.999 287.54C275.299 288.017 274.46 288.256 273.482 288.256ZM273.482 286.216C274.149 286.216 274.681 285.881 275.079 285.21C275.477 284.54 275.674 283.534 275.67 282.193C275.67 281.311 275.579 280.576 275.397 279.989C275.219 279.402 274.965 278.96 274.636 278.665C274.31 278.369 273.925 278.222 273.482 278.222C272.819 278.222 272.289 278.553 271.891 279.216C271.494 279.879 271.293 280.871 271.289 282.193C271.289 283.087 271.378 283.833 271.556 284.432C271.738 285.027 271.994 285.473 272.323 285.773C272.653 286.068 273.039 286.216 273.482 286.216ZM284.401 288.159C283.803 288.155 283.225 288.055 282.668 287.858C282.115 287.661 281.619 287.341 281.18 286.898C280.74 286.455 280.392 285.867 280.134 285.136C279.88 284.405 279.754 283.508 279.754 282.443C279.757 281.466 279.869 280.593 280.089 279.824C280.312 279.051 280.63 278.396 281.043 277.858C281.46 277.32 281.958 276.911 282.538 276.631C283.117 276.347 283.767 276.205 284.487 276.205C285.263 276.205 285.949 276.356 286.543 276.659C287.138 276.958 287.615 277.366 287.975 277.881C288.339 278.396 288.558 278.973 288.634 279.614H286.208C286.113 279.208 285.915 278.89 285.612 278.659C285.308 278.428 284.933 278.312 284.487 278.312C283.729 278.312 283.153 278.642 282.759 279.301C282.369 279.96 282.17 280.856 282.163 281.989H282.242C282.416 281.644 282.651 281.35 282.947 281.108C283.246 280.862 283.585 280.674 283.964 280.545C284.346 280.413 284.75 280.347 285.174 280.347C285.863 280.347 286.477 280.509 287.015 280.835C287.553 281.157 287.977 281.6 288.288 282.165C288.598 282.729 288.754 283.375 288.754 284.102C288.754 284.89 288.57 285.591 288.202 286.205C287.839 286.818 287.329 287.299 286.674 287.648C286.022 287.992 285.265 288.163 284.401 288.159ZM284.39 286.227C284.769 286.227 285.108 286.136 285.407 285.955C285.706 285.773 285.941 285.527 286.112 285.216C286.282 284.905 286.367 284.557 286.367 284.17C286.367 283.784 286.282 283.437 286.112 283.131C285.945 282.824 285.714 282.58 285.418 282.398C285.123 282.216 284.786 282.125 284.407 282.125C284.123 282.125 283.86 282.178 283.617 282.284C283.379 282.39 283.168 282.538 282.987 282.727C282.808 282.917 282.668 283.136 282.566 283.386C282.464 283.633 282.413 283.896 282.413 284.176C282.413 284.551 282.498 284.894 282.668 285.205C282.843 285.515 283.077 285.763 283.373 285.949C283.672 286.134 284.011 286.227 284.39 286.227ZM295.589 275.818L291.839 289.75H289.754L293.504 275.818H295.589ZM296.732 288V286.227L300.874 282.392C301.227 282.051 301.522 281.744 301.761 281.472C302.003 281.199 302.187 280.932 302.312 280.67C302.437 280.405 302.499 280.119 302.499 279.812C302.499 279.472 302.422 279.178 302.266 278.932C302.111 278.682 301.899 278.491 301.63 278.358C301.361 278.222 301.056 278.153 300.715 278.153C300.359 278.153 300.049 278.225 299.783 278.369C299.518 278.513 299.314 278.72 299.17 278.989C299.026 279.258 298.954 279.578 298.954 279.949H296.619C296.619 279.187 296.791 278.527 297.136 277.966C297.48 277.405 297.963 276.972 298.585 276.665C299.206 276.358 299.922 276.205 300.732 276.205C301.566 276.205 302.291 276.352 302.908 276.648C303.53 276.939 304.013 277.345 304.357 277.864C304.702 278.383 304.874 278.977 304.874 279.648C304.874 280.087 304.787 280.521 304.613 280.949C304.442 281.377 304.138 281.852 303.698 282.375C303.259 282.894 302.639 283.517 301.84 284.244L300.141 285.909V285.989H305.028V288H296.732ZM311.373 288.256C310.396 288.252 309.555 288.011 308.85 287.534C308.149 287.057 307.61 286.366 307.231 285.46C306.856 284.555 306.67 283.466 306.674 282.193C306.674 280.924 306.862 279.843 307.237 278.949C307.615 278.055 308.155 277.375 308.856 276.909C309.56 276.439 310.399 276.205 311.373 276.205C312.346 276.205 313.183 276.439 313.884 276.909C314.589 277.379 315.13 278.061 315.509 278.955C315.888 279.845 316.076 280.924 316.072 282.193C316.072 283.47 315.882 284.561 315.504 285.466C315.129 286.371 314.591 287.062 313.89 287.54C313.189 288.017 312.35 288.256 311.373 288.256ZM311.373 286.216C312.04 286.216 312.572 285.881 312.969 285.21C313.367 284.54 313.564 283.534 313.56 282.193C313.56 281.311 313.469 280.576 313.288 279.989C313.11 279.402 312.856 278.96 312.526 278.665C312.201 278.369 311.816 278.222 311.373 278.222C310.71 278.222 310.18 278.553 309.782 279.216C309.384 279.879 309.183 280.871 309.18 282.193C309.18 283.087 309.269 283.833 309.447 284.432C309.629 285.027 309.884 285.473 310.214 285.773C310.543 286.068 310.93 286.216 311.373 286.216ZM317.826 288V286.227L321.968 282.392C322.32 282.051 322.616 281.744 322.854 281.472C323.097 281.199 323.281 280.932 323.406 280.67C323.531 280.405 323.593 280.119 323.593 279.812C323.593 279.472 323.515 279.178 323.36 278.932C323.205 278.682 322.993 278.491 322.724 278.358C322.455 278.222 322.15 278.153 321.809 278.153C321.453 278.153 321.142 278.225 320.877 278.369C320.612 278.513 320.407 278.72 320.263 278.989C320.12 279.258 320.048 279.578 320.048 279.949H317.712C317.712 279.187 317.885 278.527 318.229 277.966C318.574 277.405 319.057 276.972 319.678 276.665C320.299 276.358 321.015 276.205 321.826 276.205C322.659 276.205 323.385 276.352 324.002 276.648C324.623 276.939 325.106 277.345 325.451 277.864C325.796 278.383 325.968 278.977 325.968 279.648C325.968 280.087 325.881 280.521 325.707 280.949C325.536 281.377 325.231 281.852 324.792 282.375C324.353 282.894 323.733 283.517 322.934 284.244L321.235 285.909V285.989H326.121V288H317.826ZM332.205 288.159C331.357 288.159 330.601 288.013 329.938 287.722C329.279 287.426 328.758 287.021 328.376 286.506C327.997 285.987 327.802 285.388 327.79 284.71H330.268C330.283 284.994 330.376 285.244 330.546 285.46C330.72 285.672 330.951 285.837 331.239 285.955C331.527 286.072 331.851 286.131 332.211 286.131C332.586 286.131 332.917 286.064 333.205 285.932C333.493 285.799 333.719 285.616 333.881 285.381C334.044 285.146 334.126 284.875 334.126 284.568C334.126 284.258 334.039 283.983 333.864 283.744C333.694 283.502 333.448 283.312 333.126 283.176C332.808 283.04 332.429 282.972 331.989 282.972H330.904V281.165H331.989C332.361 281.165 332.688 281.1 332.972 280.972C333.26 280.843 333.484 280.665 333.643 280.438C333.802 280.206 333.881 279.938 333.881 279.631C333.881 279.339 333.811 279.083 333.671 278.864C333.535 278.64 333.342 278.466 333.092 278.341C332.845 278.216 332.558 278.153 332.228 278.153C331.895 278.153 331.59 278.214 331.313 278.335C331.037 278.453 330.815 278.621 330.648 278.841C330.482 279.061 330.393 279.318 330.381 279.614H328.023C328.035 278.943 328.226 278.352 328.597 277.841C328.969 277.33 329.469 276.93 330.097 276.642C330.73 276.35 331.444 276.205 332.239 276.205C333.042 276.205 333.745 276.35 334.347 276.642C334.95 276.934 335.417 277.328 335.751 277.824C336.088 278.316 336.254 278.869 336.251 279.483C336.254 280.134 336.052 280.678 335.643 281.114C335.237 281.549 334.709 281.826 334.058 281.943V282.034C334.914 282.144 335.565 282.441 336.012 282.926C336.463 283.407 336.686 284.009 336.683 284.733C336.686 285.396 336.495 285.985 336.109 286.5C335.726 287.015 335.198 287.42 334.523 287.716C333.849 288.011 333.076 288.159 332.205 288.159ZM347.614 281.222V283.142H342.308V281.222H347.614ZM358.42 276.364V288H355.96V278.699H355.891L353.227 280.369V278.188L356.107 276.364H358.42ZM366.248 276.364V288H363.788V278.699H363.719L361.055 280.369V278.188L363.935 276.364H366.248ZM374.104 275.818L370.354 289.75H368.269L372.019 275.818H374.104ZM375.248 288V286.227L379.39 282.392C379.742 282.051 380.038 281.744 380.276 281.472C380.519 281.199 380.702 280.932 380.827 280.67C380.952 280.405 381.015 280.119 381.015 279.812C381.015 279.472 380.937 279.178 380.782 278.932C380.627 278.682 380.415 278.491 380.146 278.358C379.877 278.222 379.572 278.153 379.231 278.153C378.875 278.153 378.564 278.225 378.299 278.369C378.034 278.513 377.829 278.72 377.685 278.989C377.541 279.258 377.469 279.578 377.469 279.949H375.134C375.134 279.187 375.307 278.527 375.651 277.966C375.996 277.405 376.479 276.972 377.1 276.665C377.721 276.358 378.437 276.205 379.248 276.205C380.081 276.205 380.807 276.352 381.424 276.648C382.045 276.939 382.528 277.345 382.873 277.864C383.218 278.383 383.39 278.977 383.39 279.648C383.39 280.087 383.303 280.521 383.129 280.949C382.958 281.377 382.653 281.852 382.214 282.375C381.774 282.894 381.155 283.517 380.356 284.244L378.657 285.909V285.989H383.543V288H375.248ZM389.888 288.256C388.911 288.252 388.07 288.011 387.366 287.534C386.665 287.057 386.125 286.366 385.746 285.46C385.371 284.555 385.186 283.466 385.19 282.193C385.19 280.924 385.377 279.843 385.752 278.949C386.131 278.055 386.671 277.375 387.371 276.909C388.076 276.439 388.915 276.205 389.888 276.205C390.862 276.205 391.699 276.439 392.4 276.909C393.104 277.379 393.646 278.061 394.025 278.955C394.404 279.845 394.591 280.924 394.587 282.193C394.587 283.47 394.398 284.561 394.019 285.466C393.644 286.371 393.106 287.062 392.406 287.54C391.705 288.017 390.866 288.256 389.888 288.256ZM389.888 286.216C390.555 286.216 391.087 285.881 391.485 285.21C391.883 284.54 392.08 283.534 392.076 282.193C392.076 281.311 391.985 280.576 391.803 279.989C391.625 279.402 391.371 278.96 391.042 278.665C390.716 278.369 390.332 278.222 389.888 278.222C389.226 278.222 388.695 278.553 388.298 279.216C387.9 279.879 387.699 280.871 387.695 282.193C387.695 283.087 387.784 283.833 387.962 284.432C388.144 285.027 388.4 285.473 388.729 285.773C389.059 286.068 389.445 286.216 389.888 286.216ZM396.342 288V286.227L400.484 282.392C400.836 282.051 401.131 281.744 401.37 281.472C401.612 281.199 401.796 280.932 401.921 280.67C402.046 280.405 402.109 280.119 402.109 279.812C402.109 279.472 402.031 279.178 401.876 278.932C401.72 278.682 401.508 278.491 401.239 278.358C400.97 278.222 400.665 278.153 400.325 278.153C399.969 278.153 399.658 278.225 399.393 278.369C399.128 278.513 398.923 278.72 398.779 278.989C398.635 279.258 398.563 279.578 398.563 279.949H396.228C396.228 279.187 396.4 278.527 396.745 277.966C397.09 277.405 397.573 276.972 398.194 276.665C398.815 276.358 399.531 276.205 400.342 276.205C401.175 276.205 401.9 276.352 402.518 276.648C403.139 276.939 403.622 277.345 403.967 277.864C404.311 278.383 404.484 278.977 404.484 279.648C404.484 280.087 404.397 280.521 404.222 280.949C404.052 281.377 403.747 281.852 403.308 282.375C402.868 282.894 402.249 283.517 401.45 284.244L399.751 285.909V285.989H404.637V288H396.342ZM410.721 288.159C409.872 288.159 409.117 288.013 408.454 287.722C407.795 287.426 407.274 287.021 406.891 286.506C406.513 285.987 406.317 285.388 406.306 284.71H408.783C408.799 284.994 408.891 285.244 409.062 285.46C409.236 285.672 409.467 285.837 409.755 285.955C410.043 286.072 410.367 286.131 410.727 286.131C411.102 286.131 411.433 286.064 411.721 285.932C412.009 285.799 412.234 285.616 412.397 285.381C412.56 285.146 412.641 284.875 412.641 284.568C412.641 284.258 412.554 283.983 412.38 283.744C412.21 283.502 411.963 283.312 411.641 283.176C411.323 283.04 410.944 282.972 410.505 282.972H409.42V281.165H410.505C410.876 281.165 411.204 281.1 411.488 280.972C411.776 280.843 411.999 280.665 412.158 280.438C412.317 280.206 412.397 279.938 412.397 279.631C412.397 279.339 412.327 279.083 412.187 278.864C412.05 278.64 411.857 278.466 411.607 278.341C411.361 278.216 411.073 278.153 410.744 278.153C410.41 278.153 410.105 278.214 409.829 278.335C409.552 278.453 409.331 278.621 409.164 278.841C408.997 279.061 408.908 279.318 408.897 279.614H406.539C406.55 278.943 406.742 278.352 407.113 277.841C407.484 277.33 407.984 276.93 408.613 276.642C409.246 276.35 409.96 276.205 410.755 276.205C411.558 276.205 412.261 276.35 412.863 276.642C413.465 276.934 413.933 277.328 414.266 277.824C414.603 278.316 414.77 278.869 414.766 279.483C414.77 280.134 414.567 280.678 414.158 281.114C413.753 281.549 413.225 281.826 412.573 281.943V282.034C413.429 282.144 414.081 282.441 414.528 282.926C414.978 283.407 415.202 284.009 415.198 284.733C415.202 285.396 415.011 285.985 414.624 286.5C414.242 287.015 413.713 287.42 413.039 287.716C412.365 288.011 411.592 288.159 410.721 288.159Z" fill="#CD7E9B"/>
<path d="M164.488 69V57.3636H169.079C169.958 57.3636 170.708 57.5208 171.329 57.8352C171.954 58.1458 172.429 58.5871 172.755 59.1591C173.085 59.7273 173.249 60.3958 173.249 61.1648C173.249 61.9375 173.083 62.6023 172.749 63.1591C172.416 63.7121 171.933 64.1364 171.3 64.4318C170.672 64.7273 169.91 64.875 169.016 64.875H165.942V62.8977H168.619C169.088 62.8977 169.478 62.8333 169.789 62.7045C170.1 62.5758 170.331 62.3826 170.482 62.125C170.638 61.8674 170.715 61.5473 170.715 61.1648C170.715 60.7784 170.638 60.4527 170.482 60.1875C170.331 59.9223 170.098 59.7216 169.783 59.5852C169.473 59.4451 169.081 59.375 168.607 59.375H166.948V69H164.488ZM170.772 63.7045L173.664 69H170.948L168.119 63.7045H170.772ZM178.779 69.1705C177.881 69.1705 177.109 68.9886 176.461 68.625C175.817 68.2576 175.321 67.7386 174.972 67.0682C174.624 66.3939 174.45 65.5966 174.45 64.6761C174.45 63.7784 174.624 62.9905 174.972 62.3125C175.321 61.6345 175.811 61.1061 176.444 60.7273C177.08 60.3485 177.826 60.1591 178.683 60.1591C179.258 60.1591 179.794 60.2519 180.29 60.4375C180.79 60.6193 181.226 60.8939 181.597 61.2614C181.972 61.6288 182.264 62.0909 182.472 62.6477C182.681 63.2008 182.785 63.8485 182.785 64.5909V65.2557H175.415V63.7557H180.506C180.506 63.4072 180.431 63.0985 180.279 62.8295C180.128 62.5606 179.917 62.3504 179.648 62.1989C179.383 62.0436 179.075 61.9659 178.722 61.9659C178.355 61.9659 178.029 62.0511 177.745 62.2216C177.465 62.3883 177.245 62.6136 177.086 62.8977C176.927 63.178 176.845 63.4905 176.842 63.8352V65.2614C176.842 65.6932 176.921 66.0663 177.08 66.3807C177.243 66.6951 177.472 66.9375 177.768 67.108C178.063 67.2784 178.414 67.3636 178.819 67.3636C179.088 67.3636 179.334 67.3258 179.558 67.25C179.781 67.1742 179.972 67.0606 180.131 66.9091C180.29 66.7576 180.412 66.572 180.495 66.3523L182.734 66.5C182.62 67.0379 182.387 67.5076 182.035 67.9091C181.686 68.3068 181.236 68.6174 180.683 68.8409C180.133 69.0606 179.499 69.1705 178.779 69.1705ZM191.626 62.7614L189.41 62.8977C189.372 62.7083 189.29 62.5379 189.165 62.3864C189.04 62.2311 188.876 62.108 188.671 62.017C188.47 61.9223 188.23 61.875 187.95 61.875C187.575 61.875 187.258 61.9545 187.001 62.1136C186.743 62.2689 186.614 62.4773 186.614 62.7386C186.614 62.947 186.698 63.1231 186.864 63.267C187.031 63.411 187.317 63.5265 187.722 63.6136L189.302 63.9318C190.15 64.1061 190.783 64.3864 191.2 64.7727C191.616 65.1591 191.825 65.6667 191.825 66.2955C191.825 66.8674 191.656 67.3693 191.319 67.8011C190.986 68.233 190.527 68.5701 189.944 68.8125C189.364 69.0511 188.696 69.1705 187.938 69.1705C186.783 69.1705 185.862 68.9299 185.177 68.4489C184.495 67.964 184.095 67.3049 183.978 66.4716L186.359 66.3466C186.431 66.6989 186.605 66.9678 186.881 67.1534C187.158 67.3352 187.512 67.4261 187.944 67.4261C188.368 67.4261 188.709 67.3447 188.967 67.1818C189.228 67.0152 189.361 66.8011 189.364 66.5398C189.361 66.3201 189.268 66.1402 189.086 66C188.904 65.8561 188.624 65.7462 188.245 65.6705L186.734 65.3693C185.881 65.1989 185.247 64.9034 184.83 64.483C184.417 64.0625 184.211 63.5265 184.211 62.875C184.211 62.3144 184.362 61.8314 184.665 61.4261C184.972 61.0208 185.402 60.7083 185.955 60.4886C186.512 60.2689 187.164 60.1591 187.91 60.1591C189.012 60.1591 189.879 60.392 190.512 60.858C191.148 61.3239 191.52 61.9583 191.626 62.7614ZM193.349 69V60.2727H195.769V69H193.349ZM194.565 59.1477C194.205 59.1477 193.896 59.0284 193.638 58.7898C193.385 58.5473 193.258 58.2576 193.258 57.9205C193.258 57.5871 193.385 57.3011 193.638 57.0625C193.896 56.8201 194.205 56.6989 194.565 56.6989C194.924 56.6989 195.231 56.8201 195.485 57.0625C195.743 57.3011 195.871 57.5871 195.871 57.9205C195.871 58.2576 195.743 58.5473 195.485 58.7898C195.231 59.0284 194.924 59.1477 194.565 59.1477ZM200.924 69.142C200.261 69.142 199.661 68.9716 199.123 68.6307C198.589 68.286 198.165 67.7803 197.85 67.1136C197.54 66.4432 197.384 65.6212 197.384 64.6477C197.384 63.6477 197.545 62.8163 197.867 62.1534C198.189 61.4867 198.617 60.9886 199.151 60.6591C199.689 60.3258 200.278 60.1591 200.918 60.1591C201.407 60.1591 201.814 60.2424 202.14 60.4091C202.469 60.572 202.735 60.7765 202.935 61.0227C203.14 61.2652 203.295 61.5038 203.401 61.7386H203.475V57.3636H205.89V69H203.504V67.6023H203.401C203.288 67.8447 203.127 68.0852 202.918 68.3239C202.714 68.5587 202.447 68.7538 202.117 68.9091C201.791 69.0644 201.394 69.142 200.924 69.142ZM201.691 67.2159C202.081 67.2159 202.411 67.1098 202.68 66.8977C202.952 66.6818 203.161 66.3807 203.305 65.9943C203.452 65.608 203.526 65.1553 203.526 64.6364C203.526 64.1174 203.454 63.6667 203.31 63.2841C203.166 62.9015 202.958 62.6061 202.685 62.3977C202.413 62.1894 202.081 62.0852 201.691 62.0852C201.293 62.0852 200.958 62.1932 200.685 62.4091C200.413 62.625 200.206 62.9242 200.066 63.3068C199.926 63.6894 199.856 64.1326 199.856 64.6364C199.856 65.1439 199.926 65.5928 200.066 65.983C200.21 66.3693 200.416 66.6723 200.685 66.892C200.958 67.108 201.293 67.2159 201.691 67.2159ZM211.857 69.1705C210.96 69.1705 210.187 68.9886 209.539 68.625C208.895 68.2576 208.399 67.7386 208.05 67.0682C207.702 66.3939 207.528 65.5966 207.528 64.6761C207.528 63.7784 207.702 62.9905 208.05 62.3125C208.399 61.6345 208.889 61.1061 209.522 60.7273C210.158 60.3485 210.905 60.1591 211.761 60.1591C212.336 60.1591 212.872 60.2519 213.369 60.4375C213.869 60.6193 214.304 60.8939 214.675 61.2614C215.05 61.6288 215.342 62.0909 215.55 62.6477C215.759 63.2008 215.863 63.8485 215.863 64.5909V65.2557H208.494V63.7557H213.585C213.585 63.4072 213.509 63.0985 213.357 62.8295C213.206 62.5606 212.996 62.3504 212.727 62.1989C212.461 62.0436 212.153 61.9659 211.8 61.9659C211.433 61.9659 211.107 62.0511 210.823 62.2216C210.543 62.3883 210.323 62.6136 210.164 62.8977C210.005 63.178 209.924 63.4905 209.92 63.8352V65.2614C209.92 65.6932 209.999 66.0663 210.158 66.3807C210.321 66.6951 210.55 66.9375 210.846 67.108C211.141 67.2784 211.492 67.3636 211.897 67.3636C212.166 67.3636 212.412 67.3258 212.636 67.25C212.859 67.1742 213.05 67.0606 213.21 66.9091C213.369 66.7576 213.49 66.572 213.573 66.3523L215.812 66.5C215.698 67.0379 215.465 67.5076 215.113 67.9091C214.764 68.3068 214.314 68.6174 213.761 68.8409C213.211 69.0606 212.577 69.1705 211.857 69.1705ZM212.846 59.2273L211.704 57.8409L210.562 59.2273H208.499V59.1477L210.8 56.6477H212.602L214.908 59.1477V59.2273H212.846ZM221.386 69.1705C220.492 69.1705 219.723 68.9811 219.079 68.6023C218.439 68.2197 217.946 67.6894 217.602 67.0114C217.261 66.3333 217.09 65.553 217.09 64.6705C217.09 63.7765 217.263 62.9924 217.607 62.3182C217.956 61.6402 218.45 61.1117 219.09 60.733C219.73 60.3504 220.492 60.1591 221.374 60.1591C222.136 60.1591 222.802 60.2973 223.374 60.5739C223.946 60.8504 224.399 61.2386 224.732 61.7386C225.066 62.2386 225.249 62.8258 225.283 63.5H222.999C222.935 63.0644 222.764 62.714 222.488 62.4489C222.215 62.1799 221.857 62.0455 221.414 62.0455C221.039 62.0455 220.711 62.1477 220.431 62.3523C220.155 62.553 219.939 62.8466 219.783 63.233C219.628 63.6193 219.55 64.0871 219.55 64.6364C219.55 65.1932 219.626 65.6667 219.778 66.0568C219.933 66.447 220.151 66.7443 220.431 66.9489C220.711 67.1534 221.039 67.2557 221.414 67.2557C221.691 67.2557 221.939 67.1989 222.158 67.0852C222.382 66.9716 222.566 66.8068 222.71 66.5909C222.857 66.3712 222.954 66.108 222.999 65.8011H225.283C225.246 66.4678 225.064 67.0549 224.738 67.5625C224.416 68.0663 223.971 68.4602 223.403 68.7443C222.835 69.0284 222.162 69.1705 221.386 69.1705ZM226.833 69V60.2727H229.254V69H226.833ZM228.049 59.1477C227.689 59.1477 227.38 59.0284 227.123 58.7898C226.869 58.5473 226.742 58.2576 226.742 57.9205C226.742 57.5871 226.869 57.3011 227.123 57.0625C227.38 56.8201 227.689 56.6989 228.049 56.6989C228.409 56.6989 228.716 56.8201 228.969 57.0625C229.227 57.3011 229.356 57.5871 229.356 57.9205C229.356 58.2576 229.227 58.5473 228.969 58.7898C228.716 59.0284 228.409 59.1477 228.049 59.1477ZM233.681 69.1648C233.124 69.1648 232.628 69.0682 232.192 68.875C231.757 68.678 231.412 68.3883 231.158 68.0057C230.908 67.6193 230.783 67.1383 230.783 66.5625C230.783 66.0777 230.872 65.6705 231.05 65.3409C231.228 65.0114 231.471 64.7462 231.778 64.5455C232.085 64.3447 232.433 64.1932 232.823 64.0909C233.217 63.9886 233.63 63.9167 234.062 63.875C234.569 63.822 234.978 63.7727 235.289 63.7273C235.6 63.678 235.825 63.6061 235.965 63.5114C236.105 63.4167 236.175 63.2765 236.175 63.0909V63.0568C236.175 62.697 236.062 62.4186 235.835 62.2216C235.611 62.0246 235.293 61.9261 234.88 61.9261C234.444 61.9261 234.098 62.0227 233.84 62.2159C233.583 62.4053 233.412 62.6439 233.329 62.9318L231.09 62.75C231.204 62.2197 231.427 61.7614 231.761 61.375C232.094 60.9848 232.524 60.6856 233.05 60.4773C233.581 60.2652 234.194 60.1591 234.891 60.1591C235.376 60.1591 235.84 60.2159 236.283 60.3295C236.73 60.4432 237.126 60.6193 237.471 60.858C237.819 61.0966 238.094 61.4034 238.295 61.7784C238.496 62.1496 238.596 62.5947 238.596 63.1136V69H236.3V67.7898H236.232C236.092 68.0625 235.905 68.303 235.67 68.5114C235.435 68.7159 235.153 68.8769 234.823 68.9943C234.494 69.108 234.113 69.1648 233.681 69.1648ZM234.374 67.4943C234.73 67.4943 235.045 67.4242 235.317 67.2841C235.59 67.1402 235.804 66.947 235.96 66.7045C236.115 66.4621 236.192 66.1875 236.192 65.8807V64.9545C236.117 65.0038 236.013 65.0492 235.88 65.0909C235.751 65.1288 235.605 65.1648 235.442 65.1989C235.28 65.2292 235.117 65.2576 234.954 65.2841C234.791 65.3068 234.643 65.3277 234.511 65.3466C234.227 65.3883 233.978 65.4545 233.766 65.5455C233.554 65.6364 233.389 65.7595 233.272 65.9148C233.155 66.0663 233.096 66.2557 233.096 66.483C233.096 66.8125 233.215 67.0644 233.454 67.2386C233.696 67.4091 234.003 67.4943 234.374 67.4943ZM248.154 69.1705C247.256 69.1705 246.484 68.9886 245.836 68.625C245.192 68.2576 244.696 67.7386 244.347 67.0682C243.999 66.3939 243.825 65.5966 243.825 64.6761C243.825 63.7784 243.999 62.9905 244.347 62.3125C244.696 61.6345 245.186 61.1061 245.819 60.7273C246.455 60.3485 247.201 60.1591 248.058 60.1591C248.633 60.1591 249.169 60.2519 249.665 60.4375C250.165 60.6193 250.601 60.8939 250.972 61.2614C251.347 61.6288 251.639 62.0909 251.847 62.6477C252.056 63.2008 252.16 63.8485 252.16 64.5909V65.2557H244.79V63.7557H249.881C249.881 63.4072 249.806 63.0985 249.654 62.8295C249.503 62.5606 249.292 62.3504 249.023 62.1989C248.758 62.0436 248.45 61.9659 248.097 61.9659C247.73 61.9659 247.404 62.0511 247.12 62.2216C246.84 62.3883 246.62 62.6136 246.461 62.8977C246.302 63.178 246.22 63.4905 246.217 63.8352V65.2614C246.217 65.6932 246.296 66.0663 246.455 66.3807C246.618 66.6951 246.847 66.9375 247.143 67.108C247.438 67.2784 247.789 67.3636 248.194 67.3636C248.463 67.3636 248.709 67.3258 248.933 67.25C249.156 67.1742 249.347 67.0606 249.506 66.9091C249.665 66.7576 249.787 66.572 249.87 66.3523L252.109 66.5C251.995 67.0379 251.762 67.5076 251.41 67.9091C251.061 68.3068 250.611 68.6174 250.058 68.8409C249.508 69.0606 248.874 69.1705 248.154 69.1705ZM253.739 69V60.2727H256.046V61.8125H256.148C256.33 61.3011 256.633 60.8977 257.058 60.6023C257.482 60.3068 257.989 60.1591 258.58 60.1591C259.179 60.1591 259.688 60.3087 260.109 60.608C260.529 60.9034 260.809 61.3049 260.95 61.8125H261.04C261.219 61.3125 261.54 60.9129 262.006 60.6136C262.476 60.3106 263.031 60.1591 263.671 60.1591C264.486 60.1591 265.147 60.4186 265.654 60.9375C266.165 61.4527 266.421 62.1837 266.421 63.1307V69H264.006V63.608C264.006 63.1231 263.878 62.7595 263.62 62.517C263.362 62.2746 263.04 62.1534 262.654 62.1534C262.215 62.1534 261.872 62.2936 261.626 62.5739C261.379 62.8504 261.256 63.2159 261.256 63.6705V69H258.91V63.5568C258.91 63.1288 258.787 62.7879 258.54 62.5341C258.298 62.2803 257.978 62.1534 257.58 62.1534C257.311 62.1534 257.069 62.2216 256.853 62.358C256.641 62.4905 256.472 62.678 256.347 62.9205C256.222 63.1591 256.16 63.4394 256.16 63.7614V69H253.739ZM272.082 69V57.3636H279.923V59.392H274.542V62.1648H279.519V64.1932H274.542V66.9716H279.945V69H272.082ZM284.254 63.9545V69H281.833V60.2727H284.14V61.8125H284.242C284.435 61.3049 284.759 60.9034 285.214 60.608C285.668 60.3087 286.219 60.1591 286.867 60.1591C287.473 60.1591 288.002 60.2917 288.452 60.5568C288.903 60.822 289.254 61.2008 289.504 61.6932C289.754 62.1818 289.879 62.7652 289.879 63.4432V69H287.458V63.875C287.462 63.3409 287.326 62.9242 287.049 62.625C286.772 62.322 286.392 62.1705 285.907 62.1705C285.581 62.1705 285.293 62.2405 285.043 62.3807C284.797 62.5208 284.604 62.7254 284.464 62.9943C284.327 63.2595 284.257 63.5795 284.254 63.9545ZM295.718 72.4545C294.934 72.4545 294.262 72.3466 293.701 72.1307C293.144 71.9186 292.701 71.6288 292.371 71.2614C292.042 70.8939 291.828 70.4811 291.729 70.0227L293.968 69.7216C294.036 69.8958 294.144 70.0587 294.292 70.2102C294.44 70.3617 294.635 70.483 294.877 70.5739C295.123 70.6686 295.423 70.7159 295.775 70.7159C296.301 70.7159 296.735 70.5871 297.076 70.3295C297.421 70.0758 297.593 69.6496 297.593 69.0511V67.4545H297.491C297.385 67.697 297.226 67.9261 297.013 68.142C296.801 68.358 296.529 68.5341 296.195 68.6705C295.862 68.8068 295.464 68.875 295.002 68.875C294.347 68.875 293.75 68.7235 293.212 68.4205C292.678 68.1136 292.252 67.6458 291.934 67.017C291.62 66.3845 291.462 65.5852 291.462 64.6193C291.462 63.6307 291.623 62.8049 291.945 62.142C292.267 61.4792 292.695 60.983 293.229 60.6534C293.767 60.3239 294.356 60.1591 294.996 60.1591C295.485 60.1591 295.894 60.2424 296.224 60.4091C296.553 60.572 296.818 60.7765 297.019 61.0227C297.224 61.2652 297.381 61.5038 297.491 61.7386H297.582V60.2727H299.985V69.0852C299.985 69.8277 299.803 70.4489 299.44 70.9489C299.076 71.4489 298.572 71.8239 297.928 72.0739C297.288 72.3277 296.551 72.4545 295.718 72.4545ZM295.769 67.0568C296.159 67.0568 296.489 66.9602 296.758 66.767C297.031 66.5701 297.239 66.2898 297.383 65.9261C297.531 65.5587 297.604 65.1193 297.604 64.608C297.604 64.0966 297.532 63.6534 297.388 63.2784C297.245 62.8996 297.036 62.6061 296.763 62.3977C296.491 62.1894 296.159 62.0852 295.769 62.0852C295.371 62.0852 295.036 62.1932 294.763 62.4091C294.491 62.6212 294.284 62.9167 294.144 63.2955C294.004 63.6742 293.934 64.1117 293.934 64.608C293.934 65.1117 294.004 65.5473 294.144 65.9148C294.288 66.2784 294.495 66.5606 294.763 66.7614C295.036 66.9583 295.371 67.0568 295.769 67.0568ZM305.888 69.1705C304.991 69.1705 304.218 68.9886 303.57 68.625C302.926 68.2576 302.43 67.7386 302.082 67.0682C301.733 66.3939 301.559 65.5966 301.559 64.6761C301.559 63.7784 301.733 62.9905 302.082 62.3125C302.43 61.6345 302.921 61.1061 303.553 60.7273C304.19 60.3485 304.936 60.1591 305.792 60.1591C306.368 60.1591 306.904 60.2519 307.4 60.4375C307.9 60.6193 308.335 60.8939 308.707 61.2614C309.082 61.6288 309.373 62.0909 309.582 62.6477C309.79 63.2008 309.894 63.8485 309.894 64.5909V65.2557H302.525V63.7557H307.616C307.616 63.4072 307.54 63.0985 307.388 62.8295C307.237 62.5606 307.027 62.3504 306.758 62.1989C306.493 62.0436 306.184 61.9659 305.832 61.9659C305.464 61.9659 305.138 62.0511 304.854 62.2216C304.574 62.3883 304.354 62.6136 304.195 62.8977C304.036 63.178 303.955 63.4905 303.951 63.8352V65.2614C303.951 65.6932 304.031 66.0663 304.19 66.3807C304.353 66.6951 304.582 66.9375 304.877 67.108C305.173 67.2784 305.523 67.3636 305.928 67.3636C306.197 67.3636 306.443 67.3258 306.667 67.25C306.89 67.1742 307.082 67.0606 307.241 66.9091C307.4 66.7576 307.521 66.572 307.604 66.3523L309.843 66.5C309.729 67.0379 309.496 67.5076 309.144 67.9091C308.796 68.3068 308.345 68.6174 307.792 68.8409C307.243 69.0606 306.608 69.1705 305.888 69.1705ZM313.894 63.9545V69H311.474V60.2727H313.781V61.8125H313.883C314.076 61.3049 314.4 60.9034 314.854 60.608C315.309 60.3087 315.86 60.1591 316.508 60.1591C317.114 60.1591 317.642 60.2917 318.093 60.5568C318.544 60.822 318.894 61.2008 319.144 61.6932C319.394 62.1818 319.519 62.7652 319.519 63.4432V69H317.099V63.875C317.103 63.3409 316.966 62.9242 316.69 62.625C316.413 62.322 316.032 62.1705 315.548 62.1705C315.222 62.1705 314.934 62.2405 314.684 62.3807C314.438 62.5208 314.245 62.7254 314.104 62.9943C313.968 63.2595 313.898 63.5795 313.894 63.9545ZM323.847 63.9545V69H321.427V57.3636H323.779V61.8125H323.881C324.078 61.2973 324.397 60.8939 324.836 60.6023C325.275 60.3068 325.826 60.1591 326.489 60.1591C327.095 60.1591 327.624 60.2917 328.075 60.5568C328.529 60.8182 328.881 61.1951 329.131 61.6875C329.385 62.1761 329.51 62.7614 329.506 63.4432V69H327.086V63.875C327.09 63.3371 326.953 62.9186 326.677 62.6193C326.404 62.3201 326.022 62.1705 325.529 62.1705C325.2 62.1705 324.908 62.2405 324.654 62.3807C324.404 62.5208 324.207 62.7254 324.063 62.9943C323.923 63.2595 323.851 63.5795 323.847 63.9545ZM333.9 69.1648C333.343 69.1648 332.847 69.0682 332.411 68.875C331.976 68.678 331.631 68.3883 331.377 68.0057C331.127 67.6193 331.002 67.1383 331.002 66.5625C331.002 66.0777 331.091 65.6705 331.269 65.3409C331.447 65.0114 331.69 64.7462 331.996 64.5455C332.303 64.3447 332.652 64.1932 333.042 64.0909C333.436 63.9886 333.849 63.9167 334.281 63.875C334.788 63.822 335.197 63.7727 335.508 63.7273C335.818 63.678 336.044 63.6061 336.184 63.5114C336.324 63.4167 336.394 63.2765 336.394 63.0909V63.0568C336.394 62.697 336.281 62.4186 336.053 62.2216C335.83 62.0246 335.512 61.9261 335.099 61.9261C334.663 61.9261 334.317 62.0227 334.059 62.2159C333.801 62.4053 333.631 62.6439 333.548 62.9318L331.309 62.75C331.423 62.2197 331.646 61.7614 331.979 61.375C332.313 60.9848 332.743 60.6856 333.269 60.4773C333.799 60.2652 334.413 60.1591 335.11 60.1591C335.595 60.1591 336.059 60.2159 336.502 60.3295C336.949 60.4432 337.345 60.6193 337.69 60.858C338.038 61.0966 338.313 61.4034 338.513 61.7784C338.714 62.1496 338.815 62.5947 338.815 63.1136V69H336.519V67.7898H336.451C336.311 68.0625 336.123 68.303 335.888 68.5114C335.654 68.7159 335.371 68.8769 335.042 68.9943C334.712 69.108 334.332 69.1648 333.9 69.1648ZM334.593 67.4943C334.949 67.4943 335.263 67.4242 335.536 67.2841C335.809 67.1402 336.023 66.947 336.178 66.7045C336.334 66.4621 336.411 66.1875 336.411 65.8807V64.9545C336.335 65.0038 336.231 65.0492 336.099 65.0909C335.97 65.1288 335.824 65.1648 335.661 65.1989C335.498 65.2292 335.335 65.2576 335.173 65.2841C335.01 65.3068 334.862 65.3277 334.729 65.3466C334.445 65.3883 334.197 65.4545 333.985 65.5455C333.773 65.6364 333.608 65.7595 333.491 65.9148C333.373 66.0663 333.315 66.2557 333.315 66.483C333.315 66.8125 333.434 67.0644 333.673 67.2386C333.915 67.4091 334.222 67.4943 334.593 67.4943ZM340.692 69V60.2727H343.039V61.7955H343.13C343.289 61.2538 343.556 60.8447 343.931 60.5682C344.306 60.2879 344.738 60.1477 345.227 60.1477C345.348 60.1477 345.478 60.1553 345.619 60.1705C345.759 60.1856 345.882 60.2064 345.988 60.233V62.3807C345.874 62.3466 345.717 62.3163 345.516 62.2898C345.316 62.2633 345.132 62.25 344.965 62.25C344.609 62.25 344.291 62.3277 344.011 62.483C343.734 62.6345 343.514 62.8466 343.352 63.1193C343.192 63.392 343.113 63.7064 343.113 64.0625V69H340.692ZM347.239 69V60.2727H349.66V69H347.239ZM348.455 59.1477C348.095 59.1477 347.787 59.0284 347.529 58.7898C347.275 58.5473 347.148 58.2576 347.148 57.9205C347.148 57.5871 347.275 57.3011 347.529 57.0625C347.787 56.8201 348.095 56.6989 348.455 56.6989C348.815 56.6989 349.122 56.8201 349.376 57.0625C349.633 57.3011 349.762 57.5871 349.762 57.9205C349.762 58.2576 349.633 58.5473 349.376 58.7898C349.122 59.0284 348.815 59.1477 348.455 59.1477ZM354.087 69.1648C353.531 69.1648 353.034 69.0682 352.599 68.875C352.163 68.678 351.818 68.3883 351.565 68.0057C351.315 67.6193 351.19 67.1383 351.19 66.5625C351.19 66.0777 351.279 65.6705 351.457 65.3409C351.635 65.0114 351.877 64.7462 352.184 64.5455C352.491 64.3447 352.839 64.1932 353.229 64.0909C353.623 63.9886 354.036 63.9167 354.468 63.875C354.976 63.822 355.385 63.7727 355.695 63.7273C356.006 63.678 356.231 63.6061 356.371 63.5114C356.512 63.4167 356.582 63.2765 356.582 63.0909V63.0568C356.582 62.697 356.468 62.4186 356.241 62.2216C356.017 62.0246 355.699 61.9261 355.286 61.9261C354.851 61.9261 354.504 62.0227 354.246 62.2159C353.989 62.4053 353.818 62.6439 353.735 62.9318L351.496 62.75C351.61 62.2197 351.834 61.7614 352.167 61.375C352.5 60.9848 352.93 60.6856 353.457 60.4773C353.987 60.2652 354.601 60.1591 355.298 60.1591C355.782 60.1591 356.246 60.2159 356.69 60.3295C357.137 60.4432 357.532 60.6193 357.877 60.858C358.226 61.0966 358.5 61.4034 358.701 61.7784C358.902 62.1496 359.002 62.5947 359.002 63.1136V69H356.707V67.7898H356.638C356.498 68.0625 356.311 68.303 356.076 68.5114C355.841 68.7159 355.559 68.8769 355.229 68.9943C354.9 69.108 354.519 69.1648 354.087 69.1648ZM354.781 67.4943C355.137 67.4943 355.451 67.4242 355.724 67.2841C355.996 67.1402 356.21 66.947 356.366 66.7045C356.521 66.4621 356.599 66.1875 356.599 65.8807V64.9545C356.523 65.0038 356.419 65.0492 356.286 65.0909C356.157 65.1288 356.012 65.1648 355.849 65.1989C355.686 65.2292 355.523 65.2576 355.36 65.2841C355.197 65.3068 355.049 65.3277 354.917 65.3466C354.633 65.3883 354.385 65.4545 354.173 65.5455C353.96 65.6364 353.796 65.7595 353.678 65.9148C353.561 66.0663 353.502 66.2557 353.502 66.483C353.502 66.8125 353.621 67.0644 353.86 67.2386C354.103 67.4091 354.409 67.4943 354.781 67.4943ZM367.799 69.142C367.136 69.142 366.536 68.9716 365.998 68.6307C365.464 68.286 365.04 67.7803 364.725 67.1136C364.415 66.4432 364.259 65.6212 364.259 64.6477C364.259 63.6477 364.42 62.8163 364.742 62.1534C365.064 61.4867 365.492 60.9886 366.026 60.6591C366.564 60.3258 367.153 60.1591 367.793 60.1591C368.282 60.1591 368.689 60.2424 369.015 60.4091C369.344 60.572 369.61 60.7765 369.81 61.0227C370.015 61.2652 370.17 61.5038 370.276 61.7386H370.35V57.3636H372.765V69H370.379V67.6023H370.276C370.163 67.8447 370.002 68.0852 369.793 68.3239C369.589 68.5587 369.322 68.7538 368.992 68.9091C368.666 69.0644 368.269 69.142 367.799 69.142ZM368.566 67.2159C368.956 67.2159 369.286 67.1098 369.555 66.8977C369.827 66.6818 370.036 66.3807 370.18 65.9943C370.327 65.608 370.401 65.1553 370.401 64.6364C370.401 64.1174 370.329 63.6667 370.185 63.2841C370.041 62.9015 369.833 62.6061 369.56 62.3977C369.288 62.1894 368.956 62.0852 368.566 62.0852C368.168 62.0852 367.833 62.1932 367.56 62.4091C367.288 62.625 367.081 62.9242 366.941 63.3068C366.801 63.6894 366.731 64.1326 366.731 64.6364C366.731 65.1439 366.801 65.5928 366.941 65.983C367.085 66.3693 367.291 66.6723 367.56 66.892C367.833 67.108 368.168 67.2159 368.566 67.2159ZM378.732 69.1705C377.835 69.1705 377.062 68.9886 376.414 68.625C375.77 68.2576 375.274 67.7386 374.925 67.0682C374.577 66.3939 374.403 65.5966 374.403 64.6761C374.403 63.7784 374.577 62.9905 374.925 62.3125C375.274 61.6345 375.764 61.1061 376.397 60.7273C377.033 60.3485 377.78 60.1591 378.636 60.1591C379.211 60.1591 379.747 60.2519 380.244 60.4375C380.744 60.6193 381.179 60.8939 381.55 61.2614C381.925 61.6288 382.217 62.0909 382.425 62.6477C382.634 63.2008 382.738 63.8485 382.738 64.5909V65.2557H375.369V63.7557H380.46C380.46 63.4072 380.384 63.0985 380.232 62.8295C380.081 62.5606 379.871 62.3504 379.602 62.1989C379.336 62.0436 379.028 61.9659 378.675 61.9659C378.308 61.9659 377.982 62.0511 377.698 62.2216C377.418 62.3883 377.198 62.6136 377.039 62.8977C376.88 63.178 376.799 63.4905 376.795 63.8352V65.2614C376.795 65.6932 376.874 66.0663 377.033 66.3807C377.196 66.6951 377.425 66.9375 377.721 67.108C378.016 67.2784 378.367 67.3636 378.772 67.3636C379.041 67.3636 379.287 67.3258 379.511 67.25C379.734 67.1742 379.925 67.0606 380.085 66.9091C380.244 66.7576 380.365 66.572 380.448 66.3523L382.687 66.5C382.573 67.0379 382.34 67.5076 381.988 67.9091C381.639 68.3068 381.189 68.6174 380.636 68.8409C380.086 69.0606 379.452 69.1705 378.732 69.1705ZM394.379 60.7102C394.333 60.2519 394.138 59.8958 393.793 59.642C393.449 59.3883 392.981 59.2614 392.39 59.2614C391.988 59.2614 391.649 59.3182 391.373 59.4318C391.096 59.5417 390.884 59.6951 390.737 59.892C390.593 60.089 390.521 60.3125 390.521 60.5625C390.513 60.7708 390.557 60.9527 390.651 61.108C390.75 61.2633 390.884 61.3977 391.055 61.5114C391.225 61.6212 391.422 61.7178 391.646 61.8011C391.869 61.8807 392.108 61.9489 392.362 62.0057L393.407 62.2557C393.915 62.3693 394.38 62.5208 394.805 62.7102C395.229 62.8996 395.596 63.1326 395.907 63.4091C396.218 63.6856 396.458 64.0114 396.629 64.3864C396.803 64.7614 396.892 65.1913 396.896 65.6761C396.892 66.3883 396.71 67.0057 396.35 67.5284C395.994 68.0473 395.479 68.4508 394.805 68.7386C394.134 69.0227 393.326 69.1648 392.379 69.1648C391.439 69.1648 390.621 69.0208 389.924 68.733C389.231 68.4451 388.689 68.0189 388.299 67.4545C387.913 66.8864 387.71 66.1837 387.691 65.3466H390.072C390.098 65.7367 390.21 66.0625 390.407 66.3239C390.608 66.5814 390.875 66.7765 391.208 66.9091C391.545 67.0379 391.926 67.1023 392.35 67.1023C392.767 67.1023 393.129 67.0417 393.435 66.9205C393.746 66.7992 393.987 66.6307 394.157 66.4148C394.327 66.1989 394.413 65.9508 394.413 65.6705C394.413 65.4091 394.335 65.1894 394.18 65.0114C394.028 64.8333 393.805 64.6818 393.509 64.5568C393.218 64.4318 392.86 64.3182 392.435 64.2159L391.168 63.8977C390.187 63.6591 389.413 63.286 388.844 62.7784C388.276 62.2708 387.994 61.5871 387.998 60.7273C387.994 60.0227 388.182 59.4072 388.56 58.8807C388.943 58.3542 389.468 57.9432 390.134 57.6477C390.801 57.3523 391.558 57.2045 392.407 57.2045C393.271 57.2045 394.024 57.3523 394.668 57.6477C395.316 57.9432 395.82 58.3542 396.18 58.8807C396.54 59.4072 396.725 60.017 396.737 60.7102H394.379ZM402.448 69.1705C401.566 69.1705 400.802 68.983 400.158 68.608C399.518 68.2292 399.024 67.7027 398.675 67.0284C398.327 66.3504 398.153 65.5644 398.153 64.6705C398.153 63.7689 398.327 62.9811 398.675 62.3068C399.024 61.6288 399.518 61.1023 400.158 60.7273C400.802 60.3485 401.566 60.1591 402.448 60.1591C403.331 60.1591 404.092 60.3485 404.732 60.7273C405.376 61.1023 405.872 61.6288 406.221 62.3068C406.569 62.9811 406.744 63.7689 406.744 64.6705C406.744 65.5644 406.569 66.3504 406.221 67.0284C405.872 67.7027 405.376 68.2292 404.732 68.608C404.092 68.983 403.331 69.1705 402.448 69.1705ZM402.46 67.2955C402.861 67.2955 403.196 67.1818 403.465 66.9545C403.734 66.7235 403.937 66.4091 404.073 66.0114C404.213 65.6136 404.283 65.161 404.283 64.6534C404.283 64.1458 404.213 63.6932 404.073 63.2955C403.937 62.8977 403.734 62.5833 403.465 62.3523C403.196 62.1212 402.861 62.0057 402.46 62.0057C402.054 62.0057 401.713 62.1212 401.437 62.3523C401.164 62.5833 400.958 62.8977 400.817 63.2955C400.681 63.6932 400.613 64.1458 400.613 64.6534C400.613 65.161 400.681 65.6136 400.817 66.0114C400.958 66.4091 401.164 66.7235 401.437 66.9545C401.713 67.1818 402.054 67.2955 402.46 67.2955ZM413.011 60.2727V62.0909H407.624V60.2727H413.011ZM408.857 69V59.642C408.857 59.0095 408.98 58.4848 409.227 58.0682C409.477 57.6515 409.817 57.339 410.249 57.1307C410.681 56.9223 411.172 56.8182 411.721 56.8182C412.092 56.8182 412.431 56.8466 412.738 56.9034C413.049 56.9602 413.28 57.0114 413.431 57.0568L412.999 58.875C412.905 58.8447 412.787 58.8163 412.647 58.7898C412.511 58.7633 412.371 58.75 412.227 58.75C411.871 58.75 411.622 58.8333 411.482 59C411.342 59.1629 411.272 59.392 411.272 59.6875V69H408.857ZM419.131 60.2727V62.0909H413.876V60.2727H419.131ZM415.069 58.1818H417.489V66.3182C417.489 66.5417 417.523 66.7159 417.592 66.8409C417.66 66.9621 417.754 67.0473 417.876 67.0966C418.001 67.1458 418.145 67.1705 418.308 67.1705C418.421 67.1705 418.535 67.161 418.648 67.142C418.762 67.1193 418.849 67.1023 418.91 67.0909L419.29 68.892C419.169 68.9299 418.999 68.9735 418.779 69.0227C418.559 69.0758 418.292 69.108 417.978 69.1193C417.395 69.142 416.883 69.0644 416.444 68.8864C416.008 68.7083 415.669 68.4318 415.427 68.0568C415.184 67.6818 415.065 67.2083 415.069 66.6364V58.1818ZM422.43 69L420.055 60.2727H422.504L423.856 66.1364H423.935L425.344 60.2727H427.748L429.18 66.1023H429.254L430.583 60.2727H433.026L430.657 69H428.094L426.594 63.5114H426.487L424.987 69H422.43ZM436.806 69.1648C436.249 69.1648 435.753 69.0682 435.317 68.875C434.882 68.678 434.537 68.3883 434.283 68.0057C434.033 67.6193 433.908 67.1383 433.908 66.5625C433.908 66.0777 433.997 65.6705 434.175 65.3409C434.353 65.0114 434.596 64.7462 434.903 64.5455C435.21 64.3447 435.558 64.1932 435.948 64.0909C436.342 63.9886 436.755 63.9167 437.187 63.875C437.694 63.822 438.103 63.7727 438.414 63.7273C438.725 63.678 438.95 63.6061 439.09 63.5114C439.23 63.4167 439.3 63.2765 439.3 63.0909V63.0568C439.3 62.697 439.187 62.4186 438.96 62.2216C438.736 62.0246 438.418 61.9261 438.005 61.9261C437.569 61.9261 437.223 62.0227 436.965 62.2159C436.708 62.4053 436.537 62.6439 436.454 62.9318L434.215 62.75C434.329 62.2197 434.552 61.7614 434.886 61.375C435.219 60.9848 435.649 60.6856 436.175 60.4773C436.706 60.2652 437.319 60.1591 438.016 60.1591C438.501 60.1591 438.965 60.2159 439.408 60.3295C439.855 60.4432 440.251 60.6193 440.596 60.858C440.944 61.0966 441.219 61.4034 441.42 61.7784C441.621 62.1496 441.721 62.5947 441.721 63.1136V69H439.425V67.7898H439.357C439.217 68.0625 439.03 68.303 438.795 68.5114C438.56 68.7159 438.278 68.8769 437.948 68.9943C437.619 69.108 437.238 69.1648 436.806 69.1648ZM437.499 67.4943C437.855 67.4943 438.17 67.4242 438.442 67.2841C438.715 67.1402 438.929 66.947 439.085 66.7045C439.24 66.4621 439.317 66.1875 439.317 65.8807V64.9545C439.242 65.0038 439.138 65.0492 439.005 65.0909C438.876 65.1288 438.73 65.1648 438.567 65.1989C438.405 65.2292 438.242 65.2576 438.079 65.2841C437.916 65.3068 437.768 65.3277 437.636 65.3466C437.352 65.3883 437.103 65.4545 436.891 65.5455C436.679 65.6364 436.514 65.7595 436.397 65.9148C436.28 66.0663 436.221 66.2557 436.221 66.483C436.221 66.8125 436.34 67.0644 436.579 67.2386C436.821 67.4091 437.128 67.4943 437.499 67.4943ZM443.599 69V60.2727H445.945V61.7955H446.036C446.195 61.2538 446.462 60.8447 446.837 60.5682C447.212 60.2879 447.644 60.1477 448.133 60.1477C448.254 60.1477 448.385 60.1553 448.525 60.1705C448.665 60.1856 448.788 60.2064 448.894 60.233V62.3807C448.781 62.3466 448.623 62.3163 448.423 62.2898C448.222 62.2633 448.038 62.25 447.871 62.25C447.515 62.25 447.197 62.3277 446.917 62.483C446.64 62.6345 446.421 62.8466 446.258 63.1193C446.099 63.392 446.019 63.7064 446.019 64.0625V69H443.599ZM453.717 69.1705C452.819 69.1705 452.046 68.9886 451.398 68.625C450.754 68.2576 450.258 67.7386 449.91 67.0682C449.561 66.3939 449.387 65.5966 449.387 64.6761C449.387 63.7784 449.561 62.9905 449.91 62.3125C450.258 61.6345 450.749 61.1061 451.381 60.7273C452.018 60.3485 452.764 60.1591 453.62 60.1591C454.196 60.1591 454.732 60.2519 455.228 60.4375C455.728 60.6193 456.164 60.8939 456.535 61.2614C456.91 61.6288 457.201 62.0909 457.41 62.6477C457.618 63.2008 457.722 63.8485 457.722 64.5909V65.2557H450.353V63.7557H455.444C455.444 63.4072 455.368 63.0985 455.217 62.8295C455.065 62.5606 454.855 62.3504 454.586 62.1989C454.321 62.0436 454.012 61.9659 453.66 61.9659C453.292 61.9659 452.967 62.0511 452.683 62.2216C452.402 62.3883 452.183 62.6136 452.023 62.8977C451.864 63.178 451.783 63.4905 451.779 63.8352V65.2614C451.779 65.6932 451.859 66.0663 452.018 66.3807C452.181 66.6951 452.41 66.9375 452.705 67.108C453.001 67.2784 453.351 67.3636 453.756 67.3636C454.025 67.3636 454.272 67.3258 454.495 67.25C454.719 67.1742 454.91 67.0606 455.069 66.9091C455.228 66.7576 455.349 66.572 455.433 66.3523L457.671 66.5C457.558 67.0379 457.325 67.5076 456.972 67.9091C456.624 68.3068 456.173 68.6174 455.62 68.8409C455.071 69.0606 454.436 69.1705 453.717 69.1705ZM467.545 69.2557C466.567 69.2519 465.727 69.0114 465.022 68.5341C464.321 68.0568 463.781 67.3655 463.403 66.4602C463.028 65.5549 462.842 64.4659 462.846 63.1932C462.846 61.9242 463.033 60.8428 463.408 59.9489C463.787 59.0549 464.327 58.375 465.028 57.9091C465.732 57.4394 466.571 57.2045 467.545 57.2045C468.518 57.2045 469.355 57.4394 470.056 57.9091C470.761 58.3788 471.302 59.0606 471.681 59.9545C472.06 60.8447 472.247 61.9242 472.244 63.1932C472.244 64.4697 472.054 65.5606 471.675 66.4659C471.3 67.3712 470.763 68.0625 470.062 68.5398C469.361 69.017 468.522 69.2557 467.545 69.2557ZM467.545 67.2159C468.211 67.2159 468.744 66.8807 469.141 66.2102C469.539 65.5398 469.736 64.5341 469.732 63.1932C469.732 62.3106 469.641 61.5758 469.46 60.9886C469.281 60.4015 469.028 59.9602 468.698 59.6648C468.372 59.3693 467.988 59.2216 467.545 59.2216C466.882 59.2216 466.352 59.553 465.954 60.2159C465.556 60.8788 465.355 61.8712 465.352 63.1932C465.352 64.0871 465.441 64.8333 465.619 65.4318C465.8 66.0265 466.056 66.4735 466.386 66.7727C466.715 67.0682 467.102 67.2159 467.545 67.2159ZM478.299 69.1591C477.451 69.1591 476.695 69.0133 476.032 68.7216C475.373 68.4261 474.852 68.0208 474.469 67.5057C474.091 66.9867 473.896 66.3883 473.884 65.7102H476.362C476.377 65.9943 476.469 66.2443 476.64 66.4602C476.814 66.6723 477.045 66.8371 477.333 66.9545C477.621 67.072 477.945 67.1307 478.305 67.1307C478.68 67.1307 479.011 67.0644 479.299 66.9318C479.587 66.7992 479.812 66.6155 479.975 66.3807C480.138 66.1458 480.219 65.875 480.219 65.5682C480.219 65.2576 480.132 64.983 479.958 64.7443C479.788 64.5019 479.541 64.3125 479.219 64.1761C478.901 64.0398 478.522 63.9716 478.083 63.9716H476.998V62.1648H478.083C478.454 62.1648 478.782 62.1004 479.066 61.9716C479.354 61.8428 479.577 61.6648 479.737 61.4375C479.896 61.2064 479.975 60.9375 479.975 60.6307C479.975 60.339 479.905 60.0833 479.765 59.8636C479.629 59.6402 479.435 59.4659 479.185 59.3409C478.939 59.2159 478.651 59.1534 478.322 59.1534C477.988 59.1534 477.683 59.214 477.407 59.3352C477.13 59.4527 476.909 59.6212 476.742 59.8409C476.576 60.0606 476.487 60.3182 476.475 60.6136H474.117C474.129 59.9432 474.32 59.3523 474.691 58.8409C475.062 58.3295 475.562 57.9299 476.191 57.642C476.824 57.3504 477.538 57.2045 478.333 57.2045C479.136 57.2045 479.839 57.3504 480.441 57.642C481.043 57.9337 481.511 58.3277 481.844 58.8239C482.182 59.3163 482.348 59.8693 482.344 60.483C482.348 61.1345 482.146 61.678 481.737 62.1136C481.331 62.5492 480.803 62.8258 480.151 62.9432V63.0341C481.007 63.1439 481.659 63.4413 482.106 63.9261C482.557 64.4072 482.78 65.0095 482.776 65.733C482.78 66.3958 482.589 66.9848 482.202 67.5C481.82 68.0152 481.291 68.4205 480.617 68.7159C479.943 69.0114 479.17 69.1591 478.299 69.1591ZM489.636 56.8182L485.886 70.75H483.8L487.55 56.8182H489.636ZM490.779 69V67.2273L494.921 63.392C495.273 63.0511 495.569 62.7443 495.808 62.4716C496.05 62.1989 496.234 61.9318 496.359 61.6705C496.484 61.4053 496.546 61.1193 496.546 60.8125C496.546 60.4716 496.469 60.178 496.313 59.9318C496.158 59.6818 495.946 59.4905 495.677 59.358C495.408 59.2216 495.103 59.1534 494.762 59.1534C494.406 59.1534 494.095 59.2254 493.83 59.3693C493.565 59.5133 493.361 59.7197 493.217 59.9886C493.073 60.2576 493.001 60.5777 493.001 60.9489H490.665C490.665 60.1875 490.838 59.5265 491.183 58.9659C491.527 58.4053 492.01 57.9716 492.631 57.6648C493.253 57.358 493.969 57.2045 494.779 57.2045C495.612 57.2045 496.338 57.3523 496.955 57.6477C497.576 57.9394 498.059 58.3447 498.404 58.8636C498.749 59.3826 498.921 59.9773 498.921 60.6477C498.921 61.0871 498.834 61.5208 498.66 61.9489C498.489 62.3769 498.184 62.8523 497.745 63.375C497.306 63.8939 496.686 64.517 495.887 65.2443L494.188 66.9091V66.9886H499.075V69H490.779ZM505.42 69.2557C504.442 69.2519 503.602 69.0114 502.897 68.5341C502.196 68.0568 501.656 67.3655 501.278 66.4602C500.903 65.5549 500.717 64.4659 500.721 63.1932C500.721 61.9242 500.908 60.8428 501.283 59.9489C501.662 59.0549 502.202 58.375 502.903 57.9091C503.607 57.4394 504.446 57.2045 505.42 57.2045C506.393 57.2045 507.23 57.4394 507.931 57.9091C508.636 58.3788 509.177 59.0606 509.556 59.9545C509.935 60.8447 510.122 61.9242 510.119 63.1932C510.119 64.4697 509.929 65.5606 509.55 66.4659C509.175 67.3712 508.638 68.0625 507.937 68.5398C507.236 69.017 506.397 69.2557 505.42 69.2557ZM505.42 67.2159C506.086 67.2159 506.619 66.8807 507.016 66.2102C507.414 65.5398 507.611 64.5341 507.607 63.1932C507.607 62.3106 507.516 61.5758 507.335 60.9886C507.156 60.4015 506.903 59.9602 506.573 59.6648C506.247 59.3693 505.863 59.2216 505.42 59.2216C504.757 59.2216 504.227 59.553 503.829 60.2159C503.431 60.8788 503.23 61.8712 503.227 63.1932C503.227 64.0871 503.316 64.8333 503.494 65.4318C503.675 66.0265 503.931 66.4735 504.261 66.7727C504.59 67.0682 504.977 67.2159 505.42 67.2159ZM511.873 69V67.2273L516.015 63.392C516.367 63.0511 516.663 62.7443 516.901 62.4716C517.144 62.1989 517.327 61.9318 517.452 61.6705C517.577 61.4053 517.64 61.1193 517.64 60.8125C517.64 60.4716 517.562 60.178 517.407 59.9318C517.252 59.6818 517.04 59.4905 516.771 59.358C516.502 59.2216 516.197 59.1534 515.856 59.1534C515.5 59.1534 515.189 59.2254 514.924 59.3693C514.659 59.5133 514.454 59.7197 514.31 59.9886C514.166 60.2576 514.094 60.5777 514.094 60.9489H511.759C511.759 60.1875 511.932 59.5265 512.276 58.9659C512.621 58.4053 513.104 57.9716 513.725 57.6648C514.346 57.358 515.062 57.2045 515.873 57.2045C516.706 57.2045 517.432 57.3523 518.049 57.6477C518.67 57.9394 519.153 58.3447 519.498 58.8636C519.843 59.3826 520.015 59.9773 520.015 60.6477C520.015 61.0871 519.928 61.5208 519.754 61.9489C519.583 62.3769 519.278 62.8523 518.839 63.375C518.399 63.8939 517.78 64.517 516.981 65.2443L515.282 66.9091V66.9886H520.168V69H511.873ZM521.525 66.9545V65.017L526.383 57.3636H528.053V60.0455H527.065L524.002 64.892V64.983H530.906V66.9545H521.525ZM527.11 69V66.3636L527.156 65.5057V57.3636H529.462V69H527.11ZM533.763 69.1477C533.388 69.1477 533.067 69.0152 532.798 68.75C532.532 68.4811 532.4 68.1591 532.4 67.7841C532.4 67.4129 532.532 67.0947 532.798 66.8295C533.067 66.5644 533.388 66.4318 533.763 66.4318C534.127 66.4318 534.445 66.5644 534.718 66.8295C534.991 67.0947 535.127 67.4129 535.127 67.7841C535.127 68.0341 535.063 68.2633 534.934 68.4716C534.809 68.6761 534.644 68.8409 534.44 68.9659C534.235 69.0871 534.01 69.1477 533.763 69.1477ZM540.701 57.3636V69H538.241V59.6989H538.173L535.508 61.3693V59.1875L538.388 57.3636H540.701Z" fill="#CD7E9B"/>
<path d="M163.861 306V297.273H167.134C167.804 297.273 168.366 297.398 168.821 297.648C169.278 297.898 169.624 298.241 169.857 298.679C170.092 299.114 170.21 299.608 170.21 300.162C170.21 300.722 170.092 301.219 169.857 301.653C169.621 302.088 169.273 302.43 168.812 302.68C168.352 302.928 167.786 303.051 167.112 303.051H164.943V301.751H166.899C167.291 301.751 167.612 301.683 167.862 301.547C168.112 301.411 168.297 301.223 168.416 300.984C168.538 300.746 168.599 300.472 168.599 300.162C168.599 299.852 168.538 299.58 168.416 299.344C168.297 299.108 168.111 298.925 167.858 298.794C167.608 298.661 167.286 298.594 166.891 298.594H165.442V306H163.861ZM174.319 306.128C173.663 306.128 173.096 305.991 172.619 305.719C172.145 305.443 171.779 305.054 171.524 304.551C171.268 304.045 171.14 303.45 171.14 302.766C171.14 302.092 171.268 301.501 171.524 300.993C171.782 300.482 172.143 300.084 172.606 299.8C173.069 299.513 173.613 299.369 174.238 299.369C174.642 299.369 175.022 299.435 175.38 299.565C175.741 299.693 176.059 299.892 176.335 300.162C176.613 300.432 176.832 300.776 176.991 301.193C177.15 301.608 177.23 302.102 177.23 302.676V303.149H171.865V302.109H175.751C175.748 301.814 175.684 301.551 175.559 301.321C175.434 301.088 175.26 300.905 175.035 300.771C174.814 300.638 174.555 300.571 174.26 300.571C173.944 300.571 173.667 300.648 173.429 300.801C173.19 300.952 173.004 301.151 172.87 301.398C172.74 301.642 172.673 301.911 172.67 302.203V303.111C172.67 303.491 172.74 303.818 172.879 304.091C173.018 304.361 173.213 304.568 173.463 304.713C173.713 304.855 174.005 304.926 174.341 304.926C174.565 304.926 174.768 304.895 174.95 304.832C175.132 304.767 175.289 304.672 175.423 304.547C175.556 304.422 175.657 304.267 175.725 304.082L177.166 304.244C177.075 304.625 176.902 304.957 176.646 305.241C176.393 305.523 176.069 305.741 175.674 305.898C175.279 306.051 174.828 306.128 174.319 306.128ZM181.803 299.455V300.648H178.04V299.455H181.803ZM178.969 297.886H180.512V304.031C180.512 304.239 180.543 304.398 180.606 304.509C180.671 304.616 180.756 304.69 180.862 304.73C180.967 304.77 181.083 304.79 181.211 304.79C181.308 304.79 181.396 304.783 181.475 304.768C181.558 304.754 181.62 304.741 181.663 304.73L181.923 305.936C181.84 305.964 181.722 305.996 181.569 306.03C181.418 306.064 181.234 306.084 181.015 306.089C180.629 306.101 180.281 306.043 179.971 305.915C179.661 305.784 179.415 305.582 179.234 305.31C179.055 305.037 178.967 304.696 178.969 304.287V297.886ZM184.928 306L182.465 297.273H184.165L185.738 303.686H185.819L187.498 297.273H189.044L190.728 303.69H190.804L192.377 297.273H194.077L191.614 306H190.054L188.307 299.876H188.239L186.488 306H184.928ZM196.321 306.132C195.906 306.132 195.532 306.058 195.2 305.911C194.87 305.76 194.609 305.538 194.416 305.246C194.225 304.953 194.13 304.592 194.13 304.163C194.13 303.794 194.199 303.489 194.335 303.247C194.471 303.006 194.657 302.812 194.893 302.668C195.129 302.523 195.395 302.413 195.69 302.339C195.988 302.263 196.297 302.207 196.615 302.173C196.998 302.134 197.309 302.098 197.548 302.067C197.787 302.033 197.96 301.982 198.068 301.913C198.179 301.842 198.234 301.733 198.234 301.585V301.56C198.234 301.239 198.139 300.99 197.949 300.814C197.758 300.638 197.484 300.55 197.126 300.55C196.748 300.55 196.449 300.632 196.227 300.797C196.008 300.962 195.86 301.156 195.784 301.381L194.343 301.176C194.457 300.778 194.645 300.446 194.906 300.179C195.167 299.909 195.487 299.707 195.865 299.574C196.243 299.438 196.66 299.369 197.118 299.369C197.433 299.369 197.747 299.406 198.059 299.48C198.372 299.554 198.657 299.676 198.916 299.847C199.174 300.014 199.382 300.243 199.538 300.533C199.697 300.822 199.777 301.185 199.777 301.619V306H198.294V305.101H198.243C198.149 305.283 198.017 305.453 197.846 305.612C197.679 305.768 197.467 305.895 197.211 305.991C196.958 306.085 196.662 306.132 196.321 306.132ZM196.721 304.999C197.031 304.999 197.299 304.937 197.527 304.815C197.754 304.69 197.929 304.526 198.051 304.321C198.176 304.116 198.238 303.893 198.238 303.652V302.881C198.19 302.92 198.108 302.957 197.991 302.991C197.877 303.026 197.75 303.055 197.608 303.081C197.466 303.107 197.325 303.129 197.186 303.149C197.047 303.169 196.926 303.186 196.824 303.2C196.593 303.232 196.387 303.283 196.206 303.354C196.024 303.425 195.88 303.524 195.775 303.652C195.67 303.777 195.618 303.939 195.618 304.138C195.618 304.422 195.721 304.636 195.929 304.781C196.136 304.926 196.4 304.999 196.721 304.999ZM202.87 297.273V306H201.328V297.273H202.87ZM205.863 303.946L205.859 302.084H206.106L208.458 299.455H210.261L207.367 302.676H207.048L205.863 303.946ZM204.457 306V297.273H205.999V306H204.457ZM208.565 306L206.434 303.021L207.474 301.935L210.41 306H208.565Z" fill="#CD7E9B"/>
<path d="M163.793 87V80.4545H165.335V87H163.793ZM164.568 79.5256C164.324 79.5256 164.114 79.4446 163.938 79.2827C163.761 79.1179 163.673 78.9205 163.673 78.6903C163.673 78.4574 163.761 78.2599 163.938 78.098C164.114 77.9332 164.324 77.8509 164.568 77.8509C164.815 77.8509 165.026 77.9332 165.199 78.098C165.375 78.2599 165.463 78.4574 165.463 78.6903C165.463 78.9205 165.375 79.1179 165.199 79.2827C165.026 79.4446 164.815 79.5256 164.568 79.5256ZM172.491 78.2727H174.072V83.9744C174.072 84.5994 173.924 85.1491 173.629 85.6236C173.336 86.098 172.924 86.4687 172.393 86.7358C171.862 87 171.241 87.1321 170.531 87.1321C169.818 87.1321 169.196 87 168.664 86.7358C168.133 86.4687 167.721 86.098 167.429 85.6236C167.136 85.1491 166.99 84.5994 166.99 83.9744V78.2727H168.571V83.8423C168.571 84.206 168.65 84.5298 168.809 84.8139C168.971 85.098 169.199 85.321 169.491 85.483C169.784 85.642 170.13 85.7216 170.531 85.7216C170.931 85.7216 171.278 85.642 171.571 85.483C171.866 85.321 172.093 85.098 172.252 84.8139C172.412 84.5298 172.491 84.206 172.491 83.8423V78.2727ZM181.292 78.2727H182.873V83.9744C182.873 84.5994 182.725 85.1491 182.43 85.6236C182.137 86.098 181.725 86.4687 181.194 86.7358C180.663 87 180.042 87.1321 179.332 87.1321C178.619 87.1321 177.996 87 177.465 86.7358C176.934 86.4687 176.522 86.098 176.229 85.6236C175.937 85.1491 175.79 84.5994 175.79 83.9744V78.2727H177.371V83.8423C177.371 84.206 177.451 84.5298 177.61 84.8139C177.772 85.098 177.999 85.321 178.292 85.483C178.585 85.642 178.931 85.7216 179.332 85.7216C179.732 85.7216 180.079 85.642 180.371 85.483C180.667 85.321 180.894 85.098 181.053 84.8139C181.212 84.5298 181.292 84.206 181.292 83.8423V78.2727ZM184.591 87V78.2727H186.172V85.6747H190.016V87H184.591Z" fill="#CD7E9B"/>
<line x1="120" y1="90" x2="120" y2="146" stroke="#CD7E9B" stroke-width="2"/>
<line x1="120.098" y1="141.572" x2="120.015" y2="245.001" stroke="#CD7E9B" stroke-width="2"/>
<path d="M128.333 73.6666V63.1666C128.333 62.5477 128.088 61.9543 127.65 61.5167C127.212 61.0791 126.619 60.8333 126 60.8333H112C111.381 60.8333 110.788 61.0791 110.35 61.5167C109.913 61.9543 109.667 62.5477 109.667 63.1666V73.6666M128.333 73.6666H109.667M128.333 73.6666L129.827 76.6416C129.917 76.8201 129.959 77.0187 129.95 77.2183C129.941 77.418 129.881 77.6121 129.776 77.7819C129.671 77.9517 129.523 78.0916 129.348 78.1881C129.173 78.2847 128.977 78.3346 128.777 78.3333H109.223C109.023 78.3346 108.827 78.2847 108.652 78.1881C108.477 78.0916 108.329 77.9517 108.224 77.7819C108.119 77.6121 108.059 77.418 108.05 77.2183C108.041 77.0187 108.083 76.8201 108.173 76.6416L109.667 73.6666" stroke="#CD7E9B" stroke-width="2" stroke-linecap="round" stroke-linejoin="round"/>
<path d="M128.333 273.667V263.167C128.333 262.548 128.088 261.954 127.65 261.517C127.212 261.079 126.619 260.833 126 260.833H112C111.381 260.833 110.788 261.079 110.35 261.517C109.913 261.954 109.667 262.548 109.667 263.167V273.667M128.333 273.667H109.667M128.333 273.667L129.827 276.642C129.917 276.82 129.959 277.019 129.95 277.218C129.941 277.418 129.881 277.612 129.776 277.782C129.671 277.952 129.523 278.092 129.348 278.188C129.173 278.285 128.977 278.335 128.777 278.333H109.223C109.023 278.335 108.827 278.285 108.652 278.188C108.477 278.092 108.329 277.952 108.224 277.782C108.119 277.612 108.059 277.418 108.05 277.218C108.041 277.019 108.083 276.82 108.173 276.642L109.667 273.667" stroke="#CD7E9B" stroke-width="2" stroke-linecap="round" stroke-linejoin="round"/>
</svg>
