<svg width="25" height="25" viewBox="0 0 25 25" fill="none" xmlns="http://www.w3.org/2000/svg">
<circle cx="12.5" cy="12.5" r="12.5" fill="#CD7E9B"/>
<path d="M14.375 18.75V16.25C14.4619 15.4671 14.2374 14.6813 13.75 14.0625C15.625 14.0625 17.5 12.8125 17.5 10.625C17.55 9.84375 17.3312 9.075 16.875 8.4375C17.05 7.71875 17.05 6.96875 16.875 6.25C16.875 6.25 16.25 6.25 15 7.1875C13.35 6.875 11.65 6.875 9.99999 7.1875C8.74999 6.25 8.12499 6.25 8.12499 6.25C7.93749 6.96875 7.93749 7.71875 8.12499 8.4375C7.66991 9.07243 7.44904 9.84549 7.49999 10.625C7.49999 12.8125 9.37499 14.0625 11.25 14.0625C11.0062 14.3688 10.825 14.7187 10.7187 15.0937C10.6125 15.4687 10.5812 15.8625 10.625 16.25V18.75" stroke="#FFF3F3" stroke-width="1.5" stroke-linecap="round" stroke-linejoin="round"/>
<path d="M10.625 16.25C7.80625 17.5 7.5 15 6.25 15" stroke="#FFF3F3" stroke-width="1.5" stroke-linecap="round" stroke-linejoin="round"/>
</svg>
